<svg width="25" height="23" viewBox="0 0 25 23" fill="none" xmlns="http://www.w3.org/2000/svg">
<path d="M2.49921 1.32703C2.70389 1.64267 2.88665 1.91427 3.09133 2.22991C2.46997 2.22991 1.88515 2.22991 1.30033 2.22991C1.2784 2.25927 1.26378 2.28863 1.24185 2.318C1.31495 2.36938 1.40268 2.42076 1.46847 2.48683C2.2068 3.13279 2.93782 3.77875 3.66153 4.43939C3.74925 4.52013 3.82235 4.68897 3.81504 4.80641C3.65422 6.71493 3.47877 8.62345 3.30333 10.532C3.26678 10.9504 3.23023 11.3688 3.18636 11.8166C2.77699 11.7505 2.38955 11.6918 2.00942 11.6037C1.94363 11.589 1.87053 11.4569 1.85591 11.3688C1.61467 10.0695 1.38075 8.77026 1.13951 7.47834C1.1322 7.45632 1.12489 7.42696 1.09565 7.32419C1.09565 9.14463 1.09565 10.8843 1.09565 12.6607C1.40268 12.5653 1.70239 12.4625 2.00942 12.3818C2.12639 12.3524 2.25797 12.3377 2.38224 12.3597C3.82235 12.5946 5.26246 12.8442 6.70257 13.0718C6.81953 13.0938 6.97305 13.0498 7.07539 12.9837C7.41166 12.7855 7.726 12.5579 8.07689 12.3671C8.03303 12.4332 7.98917 12.4919 7.9453 12.5579C7.11194 13.659 6.27127 14.7601 5.44522 15.8612C4.58992 16.9916 3.23754 16.8962 2.55038 15.663C2.39686 15.3914 2.19218 15.1344 1.97287 14.9069C1.53426 14.4371 1.06641 14.004 0.627795 13.5342C0.518142 13.4168 0.43042 13.2186 0.43042 13.0571C0.43042 9.51165 0.43042 5.96621 0.43042 2.4281C0.43042 1.54725 0.993305 0.952669 1.87053 0.857243C1.95825 0.849903 2.06059 0.798519 2.12639 0.739796C2.33107 0.556284 2.53576 0.372773 2.72582 0.17458C2.9232 -0.0382935 3.10595 -0.0456339 3.3545 0.0938349C5.73031 1.40044 8.11344 2.6997 10.4893 4.0063C11.2422 4.41737 11.9952 4.82843 12.7481 5.24684C13.1063 5.44503 13.1355 5.63589 12.8504 5.93684C12.6385 6.15706 12.4338 6.36993 12.2218 6.59015C12.2145 6.59749 12.2145 6.60483 12.1925 6.64153C12.8285 7.31685 13.3402 8.08026 13.6107 9.01984C13.1867 9.01984 12.7993 9.02718 12.4045 9.01984C12.251 9.0125 12.1852 9.06388 12.1487 9.22537C12.0463 9.68782 11.9221 10.1429 11.7905 10.6494C11.732 10.576 11.7027 10.5393 11.6735 10.4953C10.9425 9.17399 9.92637 8.11696 8.69094 7.25079C6.62216 5.79738 4.5753 4.32194 2.51383 2.86119C2.43341 2.80247 2.353 2.74374 2.2068 2.63364C2.53576 2.65566 2.79161 2.67034 3.04747 2.69236C3.82235 2.75842 4.59723 2.82449 5.3648 2.89789C5.48908 2.91257 5.61335 2.94194 5.723 3.00066C7.37511 3.84481 9.0199 4.69631 10.6647 5.55514C11.001 5.73131 11.3226 5.94418 11.6735 6.15706C11.8051 6.00291 11.9586 5.82674 12.1048 5.65057C11.2422 5.17344 10.343 4.68162 9.4512 4.19715C7.43359 3.0814 5.40135 1.97299 3.38374 0.857243C3.17174 0.739796 3.04747 0.761817 2.90127 0.937988C2.7843 1.07012 2.6381 1.18756 2.49921 1.32703ZM1.39537 13.2626C1.66584 13.5342 1.92901 13.7985 2.17756 14.0481C2.17756 13.7324 2.17756 13.3874 2.17756 13.0131C1.89246 13.1011 1.62929 13.1892 1.39537 13.2626Z" fill="#95989A"/>
<path d="M24.9926 15.1786C22.7118 15.1786 20.4749 15.1786 18.2087 15.1786C18.2087 15.9787 18.2087 16.7715 18.2087 17.5863C18.0918 17.5937 18.004 17.601 17.9163 17.601C16.0888 17.601 14.2612 17.601 12.4337 17.601C11.9731 17.601 11.8342 17.4615 11.8342 16.9917C11.8342 16.544 11.8342 16.0962 11.8342 15.6264C13.2232 15.6264 14.5902 15.6264 16.001 15.6264C16.001 15.3034 16.0084 14.9951 16.001 14.6868C15.9937 14.54 16.0449 14.4593 16.1838 14.3932C16.637 14.1803 17.083 13.9381 17.5362 13.7252C17.7043 13.6445 17.7701 13.5491 17.7701 13.3582C17.7555 12.2425 17.7628 11.1194 17.7628 10.0036C17.7628 9.90819 17.7628 9.80542 17.7628 9.69531C18.1356 9.69531 18.4938 9.69531 18.8593 9.69531C19.1517 10.8551 19.4368 12.0222 19.7366 13.2041C19.8462 13.2041 19.9412 13.2041 20.0436 13.2041C21.4983 13.2041 22.9457 13.2041 24.4005 13.2041C24.861 13.2041 24.9999 13.3435 24.9999 13.8133C24.9926 14.2537 24.9926 14.7015 24.9926 15.1786Z" fill="#95989A"/>
<path d="M21.535 19.3774C20.5846 20.6767 20.5846 21.3887 21.5277 22.8642C18.2819 22.8642 15.0508 22.8642 11.7612 22.8642C12.2364 22.3503 12.4923 21.7778 12.4923 21.1098C12.4923 20.4491 12.2364 19.8839 11.7612 19.3774C15.0362 19.3774 18.2746 19.3774 21.535 19.3774Z" fill="#95989A"/>
<path d="M11.8709 14.9364C11.6882 13.6885 11.966 12.5141 12.2876 11.3469C12.4411 10.8037 12.5654 10.2459 12.7043 9.68799C14.159 9.68799 15.6064 9.68799 17.0758 9.68799C17.0831 9.75405 17.0904 9.81278 17.0904 9.8715C17.0904 10.9065 17.0904 11.9415 17.0977 12.9839C17.0977 13.1453 17.0539 13.2334 16.9077 13.2995C16.4471 13.5197 15.9939 13.7546 15.5333 13.9748C15.3944 14.0409 15.3287 14.1216 15.336 14.2905C15.3506 14.496 15.3433 14.7089 15.3433 14.9364C14.1736 14.9364 13.0259 14.9364 11.8709 14.9364Z" fill="#95989A"/>
<path d="M18.874 15.8467C20.9136 15.8467 22.9312 15.8467 24.9853 15.8467C24.9853 16.3165 25.0073 16.7789 24.978 17.2414C24.9561 17.5056 24.7368 17.6011 24.4736 17.6011C23.7426 17.5937 23.0116 17.6011 22.2806 17.6011C21.2498 17.6011 20.2191 17.6011 19.1811 17.6011C19.0787 17.6011 18.9837 17.6011 18.874 17.6011C18.874 16.9991 18.874 16.4266 18.874 15.8467Z" fill="#95989A"/>
<path d="M10.0799 19.3628C11.0521 19.3628 11.8343 20.1556 11.8343 21.1318C11.8343 22.1008 11.0375 22.8936 10.0653 22.8862C9.10763 22.8789 8.32544 22.0934 8.32544 21.1318C8.32544 20.1556 9.10763 19.3628 10.0799 19.3628ZM10.5185 21.1172C10.5185 20.8823 10.3211 20.6841 10.0799 20.6841C9.84596 20.6841 9.64859 20.8823 9.64128 21.1172C9.63396 21.3667 9.84596 21.5723 10.0945 21.5649C10.3284 21.5503 10.5185 21.3521 10.5185 21.1172Z" fill="#95989A"/>
<path d="M24.9926 21.1167C24.9999 22.0857 24.2031 22.8858 23.2381 22.8858C22.2805 22.8858 21.491 22.1004 21.4837 21.1461C21.4764 20.1698 22.2586 19.3697 23.2235 19.3624C24.1958 19.355 24.9853 20.1404 24.9926 21.1167ZM23.6768 21.1241C23.6768 20.8892 23.4867 20.691 23.2455 20.6836C23.0115 20.6763 22.8068 20.8672 22.7995 21.1094C22.7922 21.359 22.9969 21.5645 23.2381 21.5645C23.4794 21.5572 23.6768 21.359 23.6768 21.1241Z" fill="#95989A"/>
<path d="M21.4692 18.2764C21.4692 18.4232 21.4692 18.548 21.4692 18.6874C19.1373 18.6874 16.8127 18.6874 14.4734 18.6874C14.4734 18.548 14.4734 18.4232 14.4734 18.2764C16.8053 18.2764 19.13 18.2764 21.4692 18.2764Z" fill="#95989A"/>
<path d="M23.4503 10.7891C23.4284 10.8185 23.4064 10.8479 23.3845 10.8699C22.8874 11.2883 22.4634 11.7507 22.7485 12.5068C22.478 12.5068 22.2734 12.5068 22.0394 12.5068C22.0394 12.1324 22.0321 11.7507 22.0467 11.369C22.0467 11.303 22.0979 11.2296 22.1491 11.1782C22.4269 10.8846 22.7047 10.6056 22.9898 10.312C23.1506 10.4882 23.2968 10.635 23.4503 10.7891Z" fill="#95989A"/>
</svg>
