<svg xmlns="http://www.w3.org/2000/svg" width="12.594" height="12.594" viewBox="0 0 12.594 12.594">
  <path id="Path_21981" data-name="Path 21981" d="M12.8-4.887a6.3,6.3,0,0,0-6.3-6.285A6.276,6.276,0,0,0,2.15-9.428L.9-10.681a.406.406,0,0,0-.694.287V-6.7A.406.406,0,0,0,.609-6.3H4.3a.406.406,0,0,0,.287-.694L3.3-8.279A4.656,4.656,0,0,1,6.5-9.547a4.669,4.669,0,0,1,4.672,4.672A4.669,4.669,0,0,1,6.5-.2a4.653,4.653,0,0,1-2.9-1.01.61.61,0,0,0-.81.05L2.5-.876a.609.609,0,0,0,.047.9A6.27,6.27,0,0,0,6.5,1.422,6.311,6.311,0,0,0,12.8-4.887Zm-4.593,2,.249-.321a.609.609,0,0,0-.107-.855l-1.033-.8V-7.516A.609.609,0,0,0,6.7-8.125H6.3a.609.609,0,0,0-.609.609v3.444L7.348-2.78A.609.609,0,0,0,8.2-2.887Z" transform="translate(-0.203 11.172)" fill="#fff"/>
</svg>
