<svg xmlns="http://www.w3.org/2000/svg" xmlns:xlink="http://www.w3.org/1999/xlink" width="102" height="102" viewBox="0 0 102 102">
  <defs>
    <filter id="Ellipse_1492" x="11" y="12" width="84" height="84" filterUnits="userSpaceOnUse">
      <feOffset dy="3" input="SourceAlpha"/>
      <feGaussianBlur stdDeviation="3" result="blur"/>
      <feFlood flood-opacity="0.161"/>
      <feComposite operator="in" in2="blur"/>
      <feComposite in="SourceGraphic"/>
    </filter>
    <filter id="Union_19" x="37.47" y="37.297" width="32.182" height="48.703" filterUnits="userSpaceOnUse">
      <feOffset dy="3" input="SourceAlpha"/>
      <feGaussianBlur stdDeviation="3" result="blur-2"/>
      <feFlood flood-opacity="0.302"/>
      <feComposite operator="in" in2="blur-2"/>
      <feComposite in="SourceGraphic"/>
    </filter>
    <linearGradient id="linear-gradient" x1="0.5" y1="1" x2="0.5" gradientUnits="objectBoundingBox">
      <stop offset="0" stop-color="#e6e6e6"/>
      <stop offset="0.265" stop-color="#d1d1d1"/>
      <stop offset="0.755" stop-color="#c6c6c6"/>
      <stop offset="1" stop-color="#ebebeb"/>
    </linearGradient>
    <linearGradient id="linear-gradient-2" y1="0.5" x2="1" y2="0.5" gradientUnits="objectBoundingBox">
      <stop offset="0" stop-color="#ffa81c"/>
      <stop offset="1" stop-color="#e86500"/>
    </linearGradient>
    <linearGradient id="linear-gradient-3" y1="0.5" x2="1" y2="0.5" gradientUnits="objectBoundingBox">
      <stop offset="0" stop-color="#e86500"/>
      <stop offset="1" stop-color="#ffa81c"/>
    </linearGradient>
    <linearGradient id="linear-gradient-4" x1="0.5" y1="1" x2="0.5" gradientUnits="objectBoundingBox">
      <stop offset="0" stop-color="#e3e3e3"/>
      <stop offset="1" stop-color="#b8b8b8"/>
    </linearGradient>
    <linearGradient id="linear-gradient-5" x1="-0.01" y1="0.997" x2="0.987" y2="0.025" gradientUnits="objectBoundingBox">
      <stop offset="0" stop-color="#e0e0e0"/>
      <stop offset="1" stop-color="#f5f5f5"/>
    </linearGradient>
    <linearGradient id="linear-gradient-6" x1="0.5" y1="0.999" x2="0.5" gradientUnits="objectBoundingBox">
      <stop offset="0" stop-color="#b8b8b8"/>
      <stop offset="1" stop-color="#c6c6c6"/>
    </linearGradient>
    <linearGradient id="linear-gradient-7" y1="0.5" x2="1" y2="0.5" gradientUnits="objectBoundingBox">
      <stop offset="0" stop-color="#c8c8c8"/>
      <stop offset="1" stop-color="#ededed"/>
    </linearGradient>
    <linearGradient id="linear-gradient-9" x1="0" y1="0.5" x2="1" y2="0.5" xlink:href="#linear-gradient-2"/>
    <linearGradient id="linear-gradient-10" x1="0" y1="0.5" x2="1" y2="0.5" xlink:href="#linear-gradient-3"/>
    <linearGradient id="linear-gradient-11" y1="0.5" x2="1" y2="0.5" gradientUnits="objectBoundingBox">
      <stop offset="0" stop-color="#434185"/>
      <stop offset="1" stop-color="#38356e"/>
    </linearGradient>
    <linearGradient id="linear-gradient-12" x1="0.066" y1="1.194" x2="0.869" y2="-0.045" xlink:href="#linear-gradient-11"/>
    <linearGradient id="linear-gradient-13" x1="0" y1="0.5" x2="1" y2="0.5" xlink:href="#linear-gradient-11"/>
    <linearGradient id="linear-gradient-19" x1="-0.002" y1="0.5" x2="0.999" y2="0.5" gradientUnits="objectBoundingBox">
      <stop offset="0" stop-color="#878787"/>
      <stop offset="1" stop-color="#a6a6a6"/>
    </linearGradient>
    <linearGradient id="linear-gradient-20" x1="-0.001" y1="0.5" x2="0.998" y2="0.5" gradientUnits="objectBoundingBox">
      <stop offset="0" stop-color="#969696"/>
      <stop offset="1" stop-color="#ededed"/>
    </linearGradient>
    <linearGradient id="linear-gradient-21" x1="828.288" y1="-818.949" x2="828.454" y2="-818.949" xlink:href="#linear-gradient-19"/>
    <linearGradient id="linear-gradient-22" x1="1367.994" y1="-1258.992" x2="1368.171" y2="-1258.992" xlink:href="#linear-gradient-20"/>
    <linearGradient id="linear-gradient-23" x1="-0.002" y1="0.5" x2="0.999" y2="0.5" xlink:href="#linear-gradient-19"/>
    <linearGradient id="linear-gradient-24" x1="-0.001" y1="0.5" x2="0.998" y2="0.5" xlink:href="#linear-gradient-20"/>
    <linearGradient id="linear-gradient-25" x1="5621.966" y1="0.5" x2="5622.968" y2="0.5" xlink:href="#linear-gradient-19"/>
    <linearGradient id="linear-gradient-26" x1="8598.645" y1="0.5" x2="8599.641" y2="0.5" xlink:href="#linear-gradient-20"/>
    <linearGradient id="linear-gradient-27" x1="5621.966" y1="0.5" x2="5622.968" y2="0.5" xlink:href="#linear-gradient-19"/>
    <linearGradient id="linear-gradient-28" x1="8598.645" y1="0.5" x2="8599.641" y2="0.5" xlink:href="#linear-gradient-20"/>
    <linearGradient id="linear-gradient-29" x1="1" y1="0.5" x2="0" y2="0.5" xlink:href="#linear-gradient-7"/>
    <linearGradient id="linear-gradient-30" x1="906.472" y1="0.5" x2="905.472" y2="0.5" xlink:href="#linear-gradient-7"/>
    <linearGradient id="linear-gradient-31" x1="-492.264" y1="175.846" x2="-493.264" y2="175.846" xlink:href="#linear-gradient-7"/>
    <linearGradient id="linear-gradient-32" x1="1464.888" y1="168.433" x2="1463.888" y2="168.433" xlink:href="#linear-gradient-7"/>
    <linearGradient id="linear-gradient-33" x1="0.5" y1="1" x2="0.5" gradientUnits="objectBoundingBox">
      <stop offset="0" stop-color="#c9c9c9"/>
      <stop offset="1" stop-color="#bbb"/>
    </linearGradient>
    <radialGradient id="radial-gradient" cx="0.5" cy="0.5" r="1.346" gradientTransform="translate(0.314 -332.046) scale(0.372 0.372)" gradientUnits="objectBoundingBox">
      <stop offset="0" stop-color="#f40"/>
      <stop offset="1"/>
    </radialGradient>
    <radialGradient id="radial-gradient-2" cx="0.5" cy="0.5" r="1.346" xlink:href="#radial-gradient"/>
    <linearGradient id="linear-gradient-34" x1="0.5" y1="1" x2="0.5" y2="0" xlink:href="#linear-gradient-6"/>
    <linearGradient id="linear-gradient-35" x1="0.5" y1="1" x2="0.5" y2="0" xlink:href="#linear-gradient-7"/>
    <linearGradient id="linear-gradient-36" x1="1170.116" y1="1" x2="1170.116" y2="0" xlink:href="#linear-gradient-6"/>
    <linearGradient id="linear-gradient-37" x1="1348.552" y1="1" x2="1348.552" y2="0" xlink:href="#linear-gradient-7"/>
    <linearGradient id="linear-gradient-38" x1="0.5" y1="1" x2="0.5" y2="0" xlink:href="#linear-gradient-5"/>
    <clipPath id="clip-Artboard_21">
      <rect width="102" height="102"/>
    </clipPath>
  </defs>
  <g id="Artboard_21" data-name="Artboard – 21" clip-path="url(#clip-Artboard_21)">
    <g id="Group_11744" data-name="Group 11744">
      <g id="Group_11723" data-name="Group 11723">
        <g transform="matrix(1, 0, 0, 1, 0, 0)" filter="url(#Ellipse_1492)">
          <circle id="Ellipse_1492-2" data-name="Ellipse 1492" cx="33" cy="33" r="33" transform="translate(86 84) rotate(180)" fill="#ff3b30" opacity="0.4"/>
        </g>
        <g id="Group_11716" data-name="Group 11716" transform="translate(2)">
          <g id="Group_10954" data-name="Group 10954" transform="translate(-1232.878 -2112.129) rotate(180)">
            <g transform="matrix(-1, 0, 0, -1, -1230.88, -2112.13)" filter="url(#Union_19)">
              <path id="Union_19-2" data-name="Union 19" d="M2.133,30.7A1.622,1.622,0,0,1,.511,29.081v-.833c0-.08.1-.152.292-.218C.794,27.894.786,27.75.777,27.6H.753a.382.382,0,0,1-.382-.382V23.83A.382.382,0,0,1,.6,23.483l0-.1-.457-.135C-.013,23.21,0,23.1,0,22.977s-.032-.247.132-.247H.569V22.7s-.192-5.03-.192-9.465c0-1.605.025-3.557.057-5.393a.38.38,0,0,1-.168-.315V4.144a.383.383,0,0,1,.251-.359c.01-.446.02-.836.028-1.153-.124-.054-.19-.112-.19-.175V1.623A1.652,1.652,0,0,1,2.035,0H12.214a1.651,1.651,0,0,1,1.679,1.623v.833c0,.069-.079.132-.226.19.013.31.028.689.045,1.121a.382.382,0,0,1,.312.375V7.529a.38.38,0,0,1-.175.32c.053,1.875.094,3.9.094,5.636,0,4.783-.315,9.245-.315,9.245h.419c.164,0,.131.124.131.247s.015.233-.131.275l-.436.129,0,.115a.382.382,0,0,1,.2.335v3.384a.383.383,0,0,1-.374.383q-.016.246-.033.478c.116.053.178.111.178.172v.833A1.622,1.622,0,0,1,11.957,30.7Z" transform="translate(60.65 74) rotate(180)" fill="#171717"/>
            </g>
            <g id="Group_10899" data-name="Group 10899" transform="translate(-1298 -2192.358)">
              <g id="Group_10898" data-name="Group 10898" transform="translate(6.47 6.229)">
                <path id="Rectangle_3875" data-name="Rectangle 3875" d="M.381,0h.877A.382.382,0,0,1,1.64.382V3.766a.383.383,0,0,1-.383.383H.382A.382.382,0,0,1,0,3.767V.381A.381.381,0,0,1,.381,0Z" transform="translate(0.372 23.449)" fill="#171717"/>
                <path id="Rectangle_3876" data-name="Rectangle 3876" d="M.381,0h.877A.382.382,0,0,1,1.64.382V3.766a.383.383,0,0,1-.383.383H.382A.382.382,0,0,1,0,3.768V.381A.381.381,0,0,1,.381,0Z" transform="translate(12.167 23.449)" fill="#171717"/>
                <path id="Rectangle_3877" data-name="Rectangle 3877" d="M.383,0h.875A.382.382,0,0,1,1.64.382V3.768a.381.381,0,0,1-.381.381H.381A.381.381,0,0,1,0,3.768V.383A.383.383,0,0,1,.383,0Z" transform="translate(0.266 3.761)" fill="#171717"/>
                <path id="Rectangle_3878" data-name="Rectangle 3878" d="M.383,0h.875A.382.382,0,0,1,1.64.382V3.768a.381.381,0,0,1-.381.381H.382A.382.382,0,0,1,0,3.768V.383A.383.383,0,0,1,.383,0Z" transform="translate(12.384 3.761)" fill="#171717"/>
                <path id="Path_21665" data-name="Path 21665" d="M-135.321,76.988a1.623,1.623,0,0,1-1.621,1.623h-9.823a1.622,1.622,0,0,1-1.621-1.623v-.833c0-.9,13.066-.9,13.066,0Z" transform="translate(148.898 -47.908)" fill="#363636"/>
                <path id="Path_21666" data-name="Path 21666" d="M-148.541,50.011a1.652,1.652,0,0,1,1.68-1.622h10.179A1.651,1.651,0,0,1-135,50.011v.834c0,.9-13.538.9-13.538,0Z" transform="translate(148.896 -48.389)" fill="#363636"/>
                <path id="Path_21667" data-name="Path 21667" d="M-136.233,48.891h-11.138a.961.961,0,0,0-.961.962h13.061A.962.962,0,0,0-136.233,48.891Z" transform="translate(148.899 -48.38)" fill="#292929"/>
                <path id="Path_21668" data-name="Path 21668" d="M-148.1,75.922s.033.988.064,1.293a.948.948,0,0,0,.917.963h10.632a.978.978,0,0,0,.917-.963c.036-.356.066-1.238.066-1.238Z" transform="translate(148.904 -47.9)" fill="#292929"/>
                <path id="Path_21669" data-name="Path 21669" d="M-135.563,77.227a.977.977,0,0,1-.917.962h-10.632a.947.947,0,0,1-.917-.962c-.139-1.339-.3-6.148-.3-6.148s-.191-5.03-.191-9.465.191-11.5.191-11.5a.961.961,0,0,1,.961-.961h2.3l.18.219h6.21l.18-.219h2.264a.961.961,0,0,1,.962.961s.315,6.97.315,11.752-.315,9.245-.315,9.245S-135.357,75.192-135.563,77.227Z" transform="translate(148.896 -48.376)" fill="url(#linear-gradient)"/>
                <path id="Path_21670" data-name="Path 21670" d="M-147.21,49.94v-.792h-.162a.959.959,0,0,0-.943.792Z" transform="translate(148.9 -48.376)" fill="url(#linear-gradient-2)"/>
                <path id="Path_21671" data-name="Path 21671" d="M-136.442,49.148h-.118v.792h1.063A.959.959,0,0,0-136.442,49.148Z" transform="translate(149.109 -48.376)" fill="url(#linear-gradient-3)"/>
                <path id="Path_21672" data-name="Path 21672" d="M-139.318,76.854h-4.869l-1.13-5.71h7.13Z" transform="translate(148.953 -47.985)" fill="url(#linear-gradient-4)"/>
                <path id="Path_21673" data-name="Path 21673" d="M-137.251,66.779a44.132,44.132,0,0,1-4.549.212,44.824,44.824,0,0,1-4.57-.212V56.4s2.019-.208,4.642-.208a44.552,44.552,0,0,1,4.477.208Z" transform="translate(148.934 -48.25)" fill="url(#linear-gradient-5)"/>
                <g id="Group_10883" data-name="Group 10883" transform="translate(3.832 0.773)">
                  <path id="Path_21674" data-name="Path 21674" d="M-144.947,49.363v.576a.4.4,0,0,0,.436.353h5.339a.4.4,0,0,0,.436-.353v-.576Z" transform="translate(145.127 -49.144)" fill="url(#linear-gradient-6)"/>
                  <path id="Path_21675" data-name="Path 21675" d="M-144.943,49.367v.6l-.181-.823Z" transform="translate(145.124 -49.148)" fill="url(#linear-gradient-7)"/>
                  <path id="Path_21676" data-name="Path 21676" d="M-138.845,49.367l.18-.219-.18.8Z" transform="translate(145.236 -49.148)" fill="url(#linear-gradient-7)"/>
                </g>
                <path id="Path_21677" data-name="Path 21677" d="M-147.117,77.693l.093-.653h1.478l.26.653Z" transform="translate(148.921 -47.88)" fill="#cfcfcf"/>
                <path id="Path_21678" data-name="Path 21678" d="M-147.52,76.533l-.526.121.009.087a.947.947,0,0,0,.917.962h.019l.093-.653a.473.473,0,0,1-.384-.139A.44.44,0,0,1-147.52,76.533Z" transform="translate(148.905 -47.889)" fill="url(#linear-gradient-9)"/>
                <path id="Path_21679" data-name="Path 21679" d="M-136.68,77.693l-.094-.653h-1.477l-.261.653Z" transform="translate(149.074 -47.88)" fill="#cfcfcf"/>
                <path id="Path_21680" data-name="Path 21680" d="M-136.292,76.533l.525.121c0,.03-.005.06-.007.087a.949.949,0,0,1-.918.962h-.018l-.095-.653a.475.475,0,0,0,.385-.139A.44.44,0,0,0-136.292,76.533Z" transform="translate(149.104 -47.889)" fill="url(#linear-gradient-10)"/>
                <rect id="Rectangle_3879" data-name="Rectangle 3879" width="2.015" height="0.791" transform="translate(10.534 0.773)" fill="#820000"/>
                <rect id="Rectangle_3880" data-name="Rectangle 3880" width="2.015" height="0.791" transform="translate(1.69 0.773)" fill="#820000"/>
                <g id="Group_10884" data-name="Group 10884" transform="translate(1.192 5.336)">
                  <path id="Path_21681" data-name="Path 21681" d="M-137.377,56.145a42.812,42.812,0,0,0-4.439-.175,43.375,43.375,0,0,0-4.455.175l-.846-2.513h10.588Z" transform="translate(147.73 -53.632)" fill="url(#linear-gradient-11)"/>
                  <path id="Path_21682" data-name="Path 21682" d="M-146.271,66.941a37.929,37.929,0,0,0,4.465.226,36.894,36.894,0,0,0,4.429-.226l.848,3.747a39.538,39.538,0,0,1-5.317.305,38.387,38.387,0,0,1-5.271-.305Z" transform="translate(147.73 -53.396)" fill="url(#linear-gradient-12)"/>
                  <path id="Path_21683" data-name="Path 21683" d="M-147.719,63.444v7.307l1.1-4.014V63.444Z" transform="translate(147.719 -53.458)" fill="url(#linear-gradient-13)"/>
                  <path id="Path_21684" data-name="Path 21684" d="M-137.1,63.444v3.293l1.1,4.014V63.444Z" transform="translate(147.907 -53.458)" fill="url(#linear-gradient-13)"/>
                  <rect id="Rectangle_3881" data-name="Rectangle 3881" width="1.102" height="4.982" transform="translate(0 4.502)" fill="url(#linear-gradient-13)"/>
                  <path id="Path_21685" data-name="Path 21685" d="M-146.617,57.821V56.43l-1.1-2.57v3.961Z" transform="translate(147.719 -53.628)" fill="url(#linear-gradient-13)"/>
                  <path id="Path_21686" data-name="Path 21686" d="M-136,57.821V53.86l-1.1,2.57v1.391Z" transform="translate(147.907 -53.628)" fill="url(#linear-gradient-13)"/>
                  <rect id="Rectangle_3882" data-name="Rectangle 3882" width="1.102" height="4.982" transform="translate(10.805 4.502)" fill="url(#linear-gradient-13)"/>
                </g>
                <g id="Group_10885" data-name="Group 10885" transform="translate(0.98 5.084)">
                  <path id="Path_21687" data-name="Path 21687" d="M-147.927,57.821h.212V53.86l-.212.806Z" transform="translate(147.927 -53.376)" fill="#ededed"/>
                  <path id="Path_21688" data-name="Path 21688" d="M-136.019,57.821h.212V54.512l-.212-.652Z" transform="translate(148.138 -53.376)" fill="#ededed"/>
                  <rect id="Rectangle_3883" data-name="Rectangle 3883" width="0.212" height="4.982" transform="translate(0 4.754)" fill="#ededed"/>
                  <rect id="Rectangle_3884" data-name="Rectangle 3884" width="0.212" height="4.982" transform="translate(12.119 4.754)" fill="#ededed"/>
                  <path id="Path_21689" data-name="Path 21689" d="M-147.927,70.416l.212.334V63.444h-.212Z" transform="translate(147.927 -53.206)" fill="#ededed"/>
                  <path id="Path_21690" data-name="Path 21690" d="M-136.019,70.751l.212-.45V63.444h-.212Z" transform="translate(148.138 -53.206)" fill="#ededed"/>
                  <path id="Path_21691" data-name="Path 21691" d="M-136.364,53.384h-10.913l.164.252h10.587Z" transform="translate(147.938 -53.384)" fill="#ededed"/>
                  <path id="Path_21692" data-name="Path 21692" d="M-136.753,70.928s-2.575.24-5.1.24-5.059-.24-5.059-.24l-.24-.305s2.483.261,5.314.261,5.309-.261,5.309-.261Z" transform="translate(147.941 -53.078)" fill="#ededed"/>
                </g>
                <g id="Group_10886" data-name="Group 10886" transform="translate(5.251 23.449)">
                  <rect id="Rectangle_3885" data-name="Rectangle 3885" width="3.835" height="0.16" fill="#a3a3a3"/>
                  <rect id="Rectangle_3886" data-name="Rectangle 3886" width="3.835" height="0.156" transform="translate(0 0.467)" fill="#a3a3a3"/>
                </g>
                <g id="Group_10887" data-name="Group 10887" transform="translate(13.433 10.655)">
                  <path id="Path_21693" data-name="Path 21693" d="M-135.479,59.5c0,.355-.048.642-.106.642s-.106-.287-.106-.642.047-.643.106-.643S-135.479,59.146-135.479,59.5Z" transform="translate(135.691 -58.858)" fill="url(#linear-gradient-19)"/>
                  <path id="Path_21694" data-name="Path 21694" d="M-135.51,59.782a.069.069,0,0,1-.068.069h0a.069.069,0,0,1-.069-.069v-.64a.069.069,0,0,1,.069-.069h0a.068.068,0,0,1,.068.069Z" transform="translate(135.692 -58.854)" fill="url(#linear-gradient-20)"/>
                </g>
                <g id="Group_10888" data-name="Group 10888" transform="translate(6.52 1.146)">
                  <path id="Path_21695" data-name="Path 21695" d="M-141.841,49.515c.354,0,.642.049.642.106s-.288.107-.642.107-.642-.047-.642-.107S-142.195,49.515-141.841,49.515Z" transform="translate(142.483 -49.515)" fill="url(#linear-gradient-21)"/>
                  <path id="Path_21696" data-name="Path 21696" d="M-141.56,49.545a.068.068,0,0,1,.068.069h0a.07.07,0,0,1-.068.069h-.641a.07.07,0,0,1-.068-.069h0a.069.069,0,0,1,.068-.069Z" transform="translate(142.487 -49.514)" fill="url(#linear-gradient-22)"/>
                </g>
                <g id="Group_10889" data-name="Group 10889" transform="translate(13.433 15.322)">
                  <path id="Path_21697" data-name="Path 21697" d="M-135.479,64.086c0,.355-.048.642-.106.642s-.106-.287-.106-.642.047-.642.106-.642S-135.479,63.731-135.479,64.086Z" transform="translate(135.691 -63.444)" fill="url(#linear-gradient-23)"/>
                  <path id="Path_21698" data-name="Path 21698" d="M-135.51,64.319a.069.069,0,0,1-.068.07h0a.07.07,0,0,1-.069-.07v-.64a.07.07,0,0,1,.069-.07h0a.07.07,0,0,1,.068.07Z" transform="translate(135.692 -63.441)" fill="url(#linear-gradient-24)"/>
                </g>
                <g id="Group_10890" data-name="Group 10890" transform="translate(0.678 10.655)">
                  <path id="Path_21699" data-name="Path 21699" d="M-148.223,59.5c0,.355.047.642.1.642s.107-.287.107-.642-.048-.643-.107-.643S-148.223,59.146-148.223,59.5Z" transform="translate(148.223 -58.858)" fill="url(#linear-gradient-25)"/>
                  <path id="Path_21700" data-name="Path 21700" d="M-148.2,59.782a.069.069,0,0,0,.068.069h0a.07.07,0,0,0,.07-.069v-.64a.069.069,0,0,0-.07-.069h0a.068.068,0,0,0-.068.069Z" transform="translate(148.224 -58.854)" fill="url(#linear-gradient-26)"/>
                </g>
                <g id="Group_10891" data-name="Group 10891" transform="translate(0.678 15.322)">
                  <path id="Path_21701" data-name="Path 21701" d="M-148.223,64.086c0,.355.047.642.1.642s.107-.287.107-.642-.048-.642-.107-.642S-148.223,63.731-148.223,64.086Z" transform="translate(148.223 -63.444)" fill="url(#linear-gradient-27)"/>
                  <path id="Path_21702" data-name="Path 21702" d="M-148.2,64.319a.069.069,0,0,0,.068.07h0a.07.07,0,0,0,.07-.07v-.64a.071.071,0,0,0-.07-.07h0a.07.07,0,0,0-.068.07Z" transform="translate(148.224 -63.441)" fill="url(#linear-gradient-28)"/>
                </g>
                <g id="Group_10892" data-name="Group 10892" transform="translate(1.115 18.79)">
                  <path id="Path_21703" data-name="Path 21703" d="M-139.423,76.854l1.13-5.71-.839,6Z" transform="translate(147.943 -66.775)" fill="#a1a1a1"/>
                  <path id="Path_21704" data-name="Path 21704" d="M-144.187,76.854l-1.13-5.71.839,6Z" transform="translate(147.838 -66.775)" fill="#ebebeb"/>
                  <path id="Path_21705" data-name="Path 21705" d="M-147.591,71.527l.13,5.265-.333-5.281,1.347-4.659Z" transform="translate(147.794 -66.851)" fill="url(#linear-gradient-29)"/>
                  <path id="Path_21706" data-name="Path 21706" d="M-136.2,71.527l-.129,5.265L-136,71.51l-1.346-4.659Z" transform="translate(147.98 -66.851)" fill="url(#linear-gradient-30)"/>
                </g>
                <g id="Group_10894" data-name="Group 10894" transform="translate(1.155 1.747)">
                  <g id="Group_10893" data-name="Group 10893">
                    <path id="Path_21707" data-name="Path 21707" d="M-136.16,53.2l.139-2.894.064,2.9-1.339,2.98Z" transform="translate(147.94 -50.102)" fill="url(#linear-gradient-31)"/>
                    <path id="Path_21708" data-name="Path 21708" d="M-147.552,53.2l-.136-3.1-.067,3.106,1.284,3.037Z" transform="translate(147.755 -50.106)" fill="url(#linear-gradient-32)"/>
                  </g>
                </g>
                <g id="Group_10895" data-name="Group 10895" transform="translate(4.371 29.139)">
                  <path id="Path_21709" data-name="Path 21709" d="M-139.378,77.02h-4.8l-.416.674h5.632Z" transform="translate(144.595 -77.02)" fill="url(#linear-gradient-33)"/>
                  <rect id="Rectangle_3887" data-name="Rectangle 3887" width="4.97" height="0.116" transform="translate(0.33 0.418)" fill="#b0b0b0"/>
                  <rect id="Rectangle_3888" data-name="Rectangle 3888" width="4.753" height="0.115" transform="translate(0.439 0.186)" fill="#b0b0b0"/>
                </g>
                <path id="Path_21710" data-name="Path 21710" d="M-135.6,49.16c0,.394-.859.713-1.916.713s-1.919-.32-1.919-.713.86-.711,1.919-.711S-135.6,48.768-135.6,49.16Z" transform="translate(149.058 -48.388)" fill="url(#radial-gradient)" style="mix-blend-mode: screen;isolation: isolate"/>
                <path id="Path_21711" data-name="Path 21711" d="M-144.289,49.16c0,.394-.859.713-1.917.713s-1.917-.32-1.917-.713.859-.711,1.917-.711S-144.289,48.768-144.289,49.16Z" transform="translate(148.903 -48.388)" fill="url(#radial-gradient-2)" style="mix-blend-mode: screen;isolation: isolate"/>
                <g id="Group_10896" data-name="Group 10896" transform="translate(13.161 22.731)">
                  <path id="Path_21712" data-name="Path 21712" d="M-135.726,71.438s.507-.151.655-.193.131-.152.131-.276.033-.246-.131-.246h-.655l-.232.184Z" transform="translate(135.958 -70.723)" fill="url(#linear-gradient-34)"/>
                  <path id="Path_21713" data-name="Path 21713" d="M-135.958,70.9l.887-.082-.821.232Z" transform="translate(135.958 -70.721)" fill="url(#linear-gradient-35)"/>
                </g>
                <g id="Group_10897" data-name="Group 10897" transform="translate(0 22.731)">
                  <path id="Path_21714" data-name="Path 21714" d="M-148.1,71.438l-.654-.193c-.148-.043-.132-.152-.132-.276s-.033-.246.132-.246h.654l.232.184Z" transform="translate(148.89 -70.723)" fill="url(#linear-gradient-36)"/>
                  <path id="Path_21715" data-name="Path 21715" d="M-147.871,70.9l-.886-.082.821.232Z" transform="translate(148.892 -70.721)" fill="url(#linear-gradient-37)"/>
                </g>
                <rect id="Rectangle_3889" data-name="Rectangle 3889" width="10.908" height="2.934" transform="translate(1.641 2.15)" fill="url(#linear-gradient-38)"/>
              </g>
            </g>
          </g>
          <path id="Polygon_8" data-name="Polygon 8" d="M6.181,1.17a1,1,0,0,1,1.638,0L12.9,8.427A1,1,0,0,1,12.079,10H1.921A1,1,0,0,1,1.1,8.427Z" transform="translate(44.122 29)" fill="#ff3b30"/>
        </g>
      </g>
    </g>
  </g>
</svg>
