<svg xmlns="http://www.w3.org/2000/svg" xmlns:xlink="http://www.w3.org/1999/xlink" width="102" height="102" viewBox="0 0 102 102">
  <defs>
    <filter id="Union_24" x="31" y="23.778" width="39.979" height="81.222" filterUnits="userSpaceOnUse">
      <feOffset dy="3" input="SourceAlpha"/>
      <feGaussianBlur stdDeviation="3" result="blur"/>
      <feFlood flood-opacity="0.302"/>
      <feComposite operator="in" in2="blur"/>
      <feComposite in="SourceGraphic"/>
    </filter>
    <linearGradient id="linear-gradient" x1="0.5" y1="1" x2="0.5" gradientUnits="objectBoundingBox">
      <stop offset="0" stop-color="#c6c6c6"/>
      <stop offset="1" stop-color="#c6c6c6"/>
    </linearGradient>
    <linearGradient id="linear-gradient-2" x1="0.11" y1="1.958" x2="0.839" y2="-0.702" gradientUnits="objectBoundingBox">
      <stop offset="0" stop-color="#434185"/>
      <stop offset="1" stop-color="#38356e"/>
    </linearGradient>
    <linearGradient id="linear-gradient-3" x1="-22.845" y1="668.821" x2="-22.134" y2="662.82" xlink:href="#linear-gradient-2"/>
    <linearGradient id="linear-gradient-4" x1="0" y1="0.5" x2="1" y2="0.5" xlink:href="#linear-gradient-2"/>
    <linearGradient id="linear-gradient-5" x1="-398.534" y1="0.5" x2="-397.534" y2="0.5" xlink:href="#linear-gradient-2"/>
    <linearGradient id="linear-gradient-6" x1="-0.61" y1="0.683" x2="1.615" y2="0.313" gradientUnits="objectBoundingBox">
      <stop offset="0" stop-color="#e0e0e0"/>
      <stop offset="1" stop-color="#fff"/>
    </linearGradient>
    <linearGradient id="linear-gradient-7" y1="0.5" x2="1" y2="0.5" gradientUnits="objectBoundingBox">
      <stop offset="0" stop-color="#e86500"/>
      <stop offset="1" stop-color="#ffa81c"/>
    </linearGradient>
    <linearGradient id="linear-gradient-8" x1="-246.712" y1="0.5" x2="-245.712" y2="0.5" xlink:href="#linear-gradient-7"/>
    <linearGradient id="linear-gradient-9" x1="-246.72" y1="560.036" x2="-245.72" y2="560.036" xlink:href="#linear-gradient-7"/>
    <linearGradient id="linear-gradient-10" x1="-17.548" y1="560.036" x2="-16.548" y2="560.036" xlink:href="#linear-gradient-7"/>
    <linearGradient id="linear-gradient-11" x1="0.5" y1="1" x2="0.5" gradientUnits="objectBoundingBox">
      <stop offset="0" stop-color="#c9c9c9"/>
      <stop offset="1" stop-color="#a1a1a1"/>
    </linearGradient>
    <linearGradient id="linear-gradient-12" x1="0.5" y1="1" x2="0.5" y2="0" xlink:href="#linear-gradient-2"/>
    <linearGradient id="linear-gradient-26" x1="0.5" y1="1" x2="0.5" gradientUnits="objectBoundingBox">
      <stop offset="0" stop-color="#c6c6c6"/>
      <stop offset="1" stop-color="#b8b8b8"/>
    </linearGradient>
    <linearGradient id="linear-gradient-28" x1="0.5" y1="1" x2="0.5" gradientUnits="objectBoundingBox">
      <stop offset="0" stop-color="#e0e0e0"/>
      <stop offset="1" stop-color="#eaeaea"/>
    </linearGradient>
    <linearGradient id="linear-gradient-32" x1="208.918" y1="1" x2="208.918" gradientUnits="objectBoundingBox">
      <stop offset="0" stop-color="#b8b8b8"/>
      <stop offset="1" stop-color="#c6c6c6"/>
    </linearGradient>
    <linearGradient id="linear-gradient-33" x1="376.019" y1="1" x2="376.019" y2="0" xlink:href="#linear-gradient-32"/>
    <radialGradient id="radial-gradient" cx="0.5" cy="0.5" r="1.345" gradientTransform="translate(0.314 -376.383) scale(0.372 0.372)" gradientUnits="objectBoundingBox">
      <stop offset="0" stop-color="#f40"/>
      <stop offset="1"/>
    </radialGradient>
    <radialGradient id="radial-gradient-2" cx="0.5" cy="0.5" r="1.345" xlink:href="#radial-gradient"/>
    <clipPath id="clip-Artboard_27">
      <rect width="102" height="102"/>
    </clipPath>
  </defs>
  <g id="Artboard_27" data-name="Artboard – 27" clip-path="url(#clip-Artboard_27)">
    <g id="Group_11715" data-name="Group 11715">
      <g id="Group_10989" data-name="Group 10989" transform="translate(-431.021 -3837) rotate(180)">
        <g id="Group_10960" data-name="Group 10960" transform="translate(449.722 -1712.039)">
          <g transform="matrix(-1, 0, 0, -1, -880.74, -2124.96)" filter="url(#Union_24)">
            <path id="Union_24-2" data-name="Union 24" d="M3.175,63.094A2.586,2.586,0,0,1,.59,60.51V59.18a.2.2,0,0,1,.076-.146c-.184-.043-.341-.082-.419-.1-.268-.077-.242-.275-.242-.5s-.059-.444.242-.444h.7V55.864A.553.553,0,0,1,.5,55.321v-4.9a.553.553,0,0,1,.448-.543V20.728a.552.552,0,0,1-.284-.483v-4.9a.555.555,0,0,1,.284-.484V13.586A.552.552,0,0,1,.664,13.1V8.2A.553.553,0,0,1,.949,7.72V4.349C.716,4.255.59,4.153.59,4.042V2.713A2.585,2.585,0,0,1,3.175.129S5.98,0,10.888,0s7.934.129,7.934.129a2.584,2.584,0,0,1,2.585,2.584V4.042c0,.1-.11.2-.315.289V7.693a.553.553,0,0,1,.34.51v4.9a.551.551,0,0,1-.34.51v1.22a.553.553,0,0,1,.34.51v4.9a.552.552,0,0,1-.34.51V49.91a.553.553,0,0,1,.34.51v4.9a.554.554,0,0,1-.34.511v2.159h.638c.3,0,.244.224.244.444s.025.418-.244.5c-.075.022-.225.059-.4.1a.206.206,0,0,1,.08.149V60.51a2.585,2.585,0,0,1-2.585,2.584s-2.8.129-7.714.129S3.175,63.094,3.175,63.094Z" transform="translate(61.98 93) rotate(180)" fill="#262626"/>
          </g>
          <g id="Group_10929" data-name="Group 10929" transform="translate(-956.712 -2230)">
            <g id="Group_10928" data-name="Group 10928" transform="translate(13.99 12.039)">
              <g id="Group_10922" data-name="Group 10922" transform="translate(0.501 7.651)">
                <path id="Rectangle_3936" data-name="Rectangle 3936" d="M.553,0H1.82a.551.551,0,0,1,.551.551v4.9a.553.553,0,0,1-.553.553H.553A.553.553,0,0,1,0,5.453V.553A.553.553,0,0,1,.553,0Z" transform="translate(0 42.217)" fill="#262626"/>
                <rect id="Rectangle_3937" data-name="Rectangle 3937" width="2.373" height="6.006" rx="0.553" transform="translate(18.56 42.217)" fill="#262626"/>
                <path id="Rectangle_3938" data-name="Rectangle 3938" d="M.553,0H1.82a.553.553,0,0,1,.553.553v4.9A.551.551,0,0,1,1.821,6H.553A.553.553,0,0,1,0,5.452V.553A.553.553,0,0,1,.553,0Z" transform="translate(18.56)" fill="#262626"/>
                <path id="Rectangle_3939" data-name="Rectangle 3939" d="M.554,0H1.82a.553.553,0,0,1,.553.553v4.9a.552.552,0,0,1-.552.552H.553A.553.553,0,0,1,0,5.453V.554A.554.554,0,0,1,.554,0Z" transform="translate(18.56 7.141)" fill="#262626"/>
                <path id="Rectangle_3940" data-name="Rectangle 3940" d="M.553,0H1.82a.552.552,0,0,1,.552.552v4.9A.551.551,0,0,1,1.82,6H.553A.553.553,0,0,1,0,5.452V.553A.553.553,0,0,1,.553,0Z" transform="translate(0.164)" fill="#262626"/>
                <path id="Rectangle_3941" data-name="Rectangle 3941" d="M.554,0H1.82a.552.552,0,0,1,.552.552v4.9a.552.552,0,0,1-.552.552H.553A.553.553,0,0,1,0,5.453V.554A.554.554,0,0,1,.554,0Z" transform="translate(0.164 7.141)" fill="#262626"/>
              </g>
              <path id="Path_21789" data-name="Path 21789" d="M235.862,69.73a2.585,2.585,0,0,1-2.584,2.584s-2.8.128-7.715.128-7.933-.128-7.933-.128a2.586,2.586,0,0,1-2.585-2.584V68.4c0-1.428,20.817-1.428,20.817,0Z" transform="translate(-214.455 -9.22)" fill="#363636"/>
              <path id="Path_21790" data-name="Path 21790" d="M215.5,68.026s.053,1.577.1,2.063a1.508,1.508,0,0,0,1.461,1.531s4.918.206,8.541.206,8.4-.206,8.4-.206a1.559,1.559,0,0,0,1.46-1.531c.057-.568.106-1.975.106-1.975Z" transform="translate(-214.447 -9.208)" fill="#292929"/>
              <path id="Path_21791" data-name="Path 21791" d="M215.045,12.946a2.585,2.585,0,0,1,2.585-2.584s2.8-.128,7.714-.128,7.934.128,7.934.128a2.584,2.584,0,0,1,2.584,2.584v1.329c0,1.427-20.817,1.427-20.817,0Z" transform="translate(-214.455 -10.234)" fill="#363636"/>
              <path id="Path_21792" data-name="Path 21792" d="M235.393,14.625s-.054-1.574-.1-2.062a1.507,1.507,0,0,0-1.46-1.53s-4.918-.207-8.541-.207-8.4.207-8.4.207a1.557,1.557,0,0,0-1.46,1.53c-.057.569-.106,1.975-.106,1.975Z" transform="translate(-214.45 -10.223)" fill="#292929"/>
              <path id="Path_21793" data-name="Path 21793" d="M235.541,70.249a1.493,1.493,0,0,1-1.492,1.493,51.451,51.451,0,0,1-17.161,0,1.492,1.492,0,0,1-1.491-1.493V12.6c0-.825,1.361-1.592,3.328-1.592h13.521c2.512,0,3.3.872,3.3,1.7Z" transform="translate(-214.449 -10.22)" fill="url(#linear-gradient)"/>
              <path id="Path_21794" data-name="Path 21794" d="M217.513,66.919a77.277,77.277,0,0,0,7.914.422,79.5,79.5,0,0,0,7.98-.422l1.023,2.487s-5.01.421-8.964.421-9-.421-9-.421Z" transform="translate(-214.43 -9.227)" fill="#ededed"/>
              <path id="Path_21795" data-name="Path 21795" d="M217.513,66.713a77.459,77.459,0,0,0,7.914.421,79.689,79.689,0,0,0,7.98-.421l1.023,2.486s-5.01.422-8.964.422-9-.422-9-.422Z" transform="translate(-214.43 -9.231)" fill="url(#linear-gradient-2)"/>
              <path id="Path_21796" data-name="Path 21796" d="M233.379,12.639s-3.652-.172-7.914-.172-7.98.172-7.98.172l-1.023-1.012s2.328-.246,8.891-.246c6.874,0,9.076.246,9.076.246Z" transform="translate(-214.43 -10.214)" fill="url(#linear-gradient-3)"/>
              <path id="Path_21797" data-name="Path 21797" d="M215.839,61.845v6.62l1-2.856V61.845Z" transform="translate(-214.441 -9.317)" fill="url(#linear-gradient-4)"/>
              <path id="Path_21798" data-name="Path 21798" d="M234.706,61.845v6.62l-1-2.856V61.845Z" transform="translate(-214.124 -9.317)" fill="url(#linear-gradient-5)"/>
              <path id="Path_21799" data-name="Path 21799" d="M233.468,67.188a53.857,53.857,0,0,1-8.093.471,51.286,51.286,0,0,1-7.983-.471V13.441h16.077Z" transform="translate(-214.413 -10.177)" fill="#ededed"/>
              <path id="Path_21800" data-name="Path 21800" d="M233.468,66.9a53.743,53.743,0,0,1-8.093.472,51.177,51.177,0,0,1-7.983-.472V12.928s3.486-.311,8.227-.311,7.85.311,7.85.311Z" transform="translate(-214.413 -10.192)" fill="url(#linear-gradient-6)"/>
              <path id="Path_21801" data-name="Path 21801" d="M233.666,70.7l-.09-.625-2.394.251-.448.8s.839-.086,1.566-.192S233.666,70.7,233.666,70.7Z" transform="translate(-214.176 -9.171)" fill="#ebebeb"/>
              <path id="Path_21802" data-name="Path 21802" d="M234.747,69l.472.157a1.562,1.562,0,0,1-1.6,1.563l-.09-.625a1.711,1.711,0,0,0,.775-.369A2.415,2.415,0,0,0,234.747,69Z" transform="translate(-214.127 -9.19)" fill="url(#linear-gradient-7)"/>
              <path id="Path_21803" data-name="Path 21803" d="M216.971,70.7l.091-.625,2.394.251.448.8s-.84-.086-1.566-.192S216.971,70.7,216.971,70.7Z" transform="translate(-214.421 -9.171)" fill="#ebebeb"/>
              <path id="Path_21804" data-name="Path 21804" d="M215.868,69l-.471.157a1.561,1.561,0,0,0,1.6,1.563l.091-.625a1.718,1.718,0,0,1-.776-.369A2.465,2.465,0,0,1,215.868,69Z" transform="translate(-214.449 -9.19)" fill="url(#linear-gradient-8)"/>
              <path id="Path_21805" data-name="Path 21805" d="M216.971,11.058v.534l1.677-.069.015-.511Z" transform="translate(-214.421 -10.22)" fill="#820000"/>
              <path id="Path_21806" data-name="Path 21806" d="M215.9,12.519l-.5-.033a1.449,1.449,0,0,1,1.6-1.429v.534a1.129,1.129,0,0,0-.851.276A1.015,1.015,0,0,0,215.9,12.519Z" transform="translate(-214.449 -10.219)" fill="url(#linear-gradient-9)"/>
              <path id="Path_21807" data-name="Path 21807" d="M233.65,11.058v.534l-1.676-.069-.016-.511Z" transform="translate(-214.155 -10.22)" fill="#820000"/>
              <path id="Path_21808" data-name="Path 21808" d="M234.723,12.519l.495-.033a1.448,1.448,0,0,0-1.6-1.429v.534a1.127,1.127,0,0,1,.851.276A1.017,1.017,0,0,1,234.723,12.519Z" transform="translate(-214.125 -10.219)" fill="url(#linear-gradient-10)"/>
              <g id="Group_10923" data-name="Group 10923" transform="translate(6.658 60.662)">
                <path id="Path_21809" data-name="Path 21809" d="M229.351,69.838s-1.806.2-3.828.2-3.851-.2-3.851-.2l-.665,1.406s2.4.174,4.476.174,4.531-.174,4.531-.174Z" transform="translate(-221.007 -69.838)" fill="url(#linear-gradient-11)"/>
                <rect id="Rectangle_3942" data-name="Rectangle 3942" width="7.95" height="0.187" transform="translate(0.527 0.995)" fill="#9e9e9e"/>
                <rect id="Rectangle_3943" data-name="Rectangle 3943" width="7.603" height="0.186" transform="translate(0.702 0.625)" fill="#9e9e9e"/>
              </g>
              <rect id="Rectangle_3944" data-name="Rectangle 3944" width="0.998" height="6.961" transform="translate(1.398 44.674)" fill="url(#linear-gradient-12)"/>
              <rect id="Rectangle_3945" data-name="Rectangle 3945" width="0.998" height="6.961" transform="translate(19.584 44.674)" fill="url(#linear-gradient-12)"/>
              <path id="Path_21810" data-name="Path 21810" d="M235.008,61.845h-.319v6.62l.319-1.666Z" transform="translate(-214.106 -9.317)" fill="#ededed"/>
              <path id="Path_21811" data-name="Path 21811" d="M215.844,61.845h-.319V66.8l.319,1.666Z" transform="translate(-214.447 -9.317)" fill="#ededed"/>
              <rect id="Rectangle_3946" data-name="Rectangle 3946" width="0.319" height="6.961" transform="translate(20.583 44.674)" fill="#ededed"/>
              <rect id="Rectangle_3947" data-name="Rectangle 3947" width="0.319" height="6.961" transform="translate(1.079 44.674)" fill="#ededed"/>
              <rect id="Rectangle_3948" data-name="Rectangle 3948" width="0.998" height="6.962" transform="translate(1.398 37.017)" fill="url(#linear-gradient-12)"/>
              <rect id="Rectangle_3949" data-name="Rectangle 3949" width="0.998" height="6.962" transform="translate(19.584 37.017)" fill="url(#linear-gradient-12)"/>
              <rect id="Rectangle_3950" data-name="Rectangle 3950" width="0.319" height="6.962" transform="translate(20.583 37.017)" fill="#ededed"/>
              <rect id="Rectangle_3951" data-name="Rectangle 3951" width="0.319" height="6.962" transform="translate(1.079 37.017)" fill="#ededed"/>
              <rect id="Rectangle_3952" data-name="Rectangle 3952" width="0.998" height="6.962" transform="translate(1.398 29.399)" fill="url(#linear-gradient-12)"/>
              <rect id="Rectangle_3953" data-name="Rectangle 3953" width="0.998" height="6.962" transform="translate(19.584 29.399)" fill="url(#linear-gradient-12)"/>
              <rect id="Rectangle_3954" data-name="Rectangle 3954" width="0.319" height="6.962" transform="translate(20.583 29.399)" fill="#ededed"/>
              <rect id="Rectangle_3955" data-name="Rectangle 3955" width="0.319" height="6.962" transform="translate(1.079 29.399)" fill="#ededed"/>
              <rect id="Rectangle_3956" data-name="Rectangle 3956" width="0.998" height="6.961" transform="translate(1.398 21.716)" fill="url(#linear-gradient-12)"/>
              <rect id="Rectangle_3957" data-name="Rectangle 3957" width="0.998" height="6.961" transform="translate(19.584 21.716)" fill="url(#linear-gradient-12)"/>
              <rect id="Rectangle_3958" data-name="Rectangle 3958" width="0.319" height="6.961" transform="translate(20.583 21.716)" fill="#ededed"/>
              <rect id="Rectangle_3959" data-name="Rectangle 3959" width="0.319" height="6.961" transform="translate(1.079 21.716)" fill="#ededed"/>
              <rect id="Rectangle_3960" data-name="Rectangle 3960" width="0.998" height="6.962" transform="translate(1.398 14.014)" fill="url(#linear-gradient-12)"/>
              <rect id="Rectangle_3961" data-name="Rectangle 3961" width="0.998" height="6.962" transform="translate(19.584 14.014)" fill="url(#linear-gradient-12)"/>
              <rect id="Rectangle_3962" data-name="Rectangle 3962" width="0.319" height="6.962" transform="translate(20.583 14.014)" fill="#ededed"/>
              <rect id="Rectangle_3963" data-name="Rectangle 3963" width="0.319" height="6.962" transform="translate(1.079 14.014)" fill="#ededed"/>
              <rect id="Rectangle_3964" data-name="Rectangle 3964" width="0.998" height="6.962" transform="translate(1.398 6.353)" fill="url(#linear-gradient-12)"/>
              <rect id="Rectangle_3965" data-name="Rectangle 3965" width="0.998" height="6.962" transform="translate(19.584 6.353)" fill="url(#linear-gradient-12)"/>
              <rect id="Rectangle_3966" data-name="Rectangle 3966" width="0.319" height="6.962" transform="translate(20.583 6.353)" fill="#ededed"/>
              <rect id="Rectangle_3967" data-name="Rectangle 3967" width="0.319" height="6.962" transform="translate(1.079 6.353)" fill="#ededed"/>
              <path id="Path_21812" data-name="Path 21812" d="M216.837,13.031l-1-.538v3.4h1Z" transform="translate(-214.441 -10.194)" fill="url(#linear-gradient-12)"/>
              <path id="Path_21813" data-name="Path 21813" d="M234.706,12.493l-1,.538V15.89h1Z" transform="translate(-214.124 -10.194)" fill="url(#linear-gradient-12)"/>
              <rect id="Rectangle_3968" data-name="Rectangle 3968" width="0.319" height="3.397" transform="translate(20.583 2.299)" fill="#ededed"/>
              <rect id="Rectangle_3969" data-name="Rectangle 3969" width="0.319" height="3.397" transform="translate(1.079 2.299)" fill="#ededed"/>
              <path id="Path_21814" data-name="Path 21814" d="M233.132,65.964l1.348,2.965.072-.162L233.2,65.413Z" transform="translate(-214.134 -9.254)" fill="#ededed"/>
              <path id="Path_21815" data-name="Path 21815" d="M217.588,65.968l-1.394,2.964-.072-.162,1.292-3.492Z" transform="translate(-214.436 -9.257)" fill="#ededed"/>
              <g id="Group_10924" data-name="Group 10924" transform="translate(7.595 41.532)">
                <path id="Rectangle_3970" data-name="Rectangle 3970" d="M.422,0H6.71a.421.421,0,0,1,.421.421V3.509a.423.423,0,0,1-.423.423H.422A.422.422,0,0,1,0,3.51V.422A.422.422,0,0,1,.422,0Z" fill="url(#linear-gradient-26)"/>
                <path id="Rectangle_3971" data-name="Rectangle 3971" d="M.32,0H6.47a.321.321,0,0,1,.321.321V2.675A.321.321,0,0,1,6.47,3H.321A.321.321,0,0,1,0,2.675V.32A.32.32,0,0,1,.32,0Z" transform="translate(0.158 0.782)" fill="url(#linear-gradient-4)"/>
                <rect id="Rectangle_3972" data-name="Rectangle 3972" width="6.791" height="2.996" rx="0.321" transform="translate(0.158 0.111)" fill="url(#linear-gradient-28)"/>
                <path id="Path_21816" data-name="Path 21816" d="M228.63,51.042h-6.273a.429.429,0,0,0-.428.429v.44a.428.428,0,0,1,.428-.429h6.273a.429.429,0,0,1,.43.429v-.44A.43.43,0,0,0,228.63,51.042Z" transform="translate(-221.928 -51.042)" fill="#040205" opacity="0.2"/>
              </g>
              <g id="Group_10925" data-name="Group 10925" transform="translate(7.595 17.494)">
                <path id="Rectangle_3973" data-name="Rectangle 3973" d="M.422,0H6.71a.421.421,0,0,1,.421.421V3.509a.423.423,0,0,1-.423.423H.422A.422.422,0,0,1,0,3.51V.422A.422.422,0,0,1,.422,0Z" transform="translate(0 0)" fill="url(#linear-gradient-26)"/>
                <path id="Rectangle_3974" data-name="Rectangle 3974" d="M.321,0H6.47a.321.321,0,0,1,.321.321V2.675a.32.32,0,0,1-.32.32H.321A.321.321,0,0,1,0,2.675V.321A.321.321,0,0,1,.321,0Z" transform="translate(0.158 0.782)" fill="url(#linear-gradient-4)"/>
                <rect id="Rectangle_3975" data-name="Rectangle 3975" width="6.791" height="2.996" rx="0.321" transform="translate(0.158 0.11)" fill="url(#linear-gradient-28)"/>
                <path id="Path_21817" data-name="Path 21817" d="M228.63,27.423h-6.273a.43.43,0,0,0-.428.431v.439a.429.429,0,0,1,.428-.429h6.273a.43.43,0,0,1,.43.429v-.439A.43.43,0,0,0,228.63,27.423Z" transform="translate(-221.928 -27.423)" fill="#040205" opacity="0.2"/>
              </g>
              <g id="Group_10926" data-name="Group 10926" transform="translate(0 57.991)">
                <path id="Path_21818" data-name="Path 21818" d="M216.219,68.5s-1.237-.271-1.506-.35-.242-.275-.242-.5-.059-.444.242-.444h1.506l.424.332Z" transform="translate(-214.465 -67.213)" fill="url(#linear-gradient-32)"/>
                <path id="Path_21819" data-name="Path 21819" d="M216.634,67.542l-1.623-.148,1.5.417Z" transform="translate(-214.456 -67.21)" fill="#ededed"/>
              </g>
              <g id="Group_10927" data-name="Group 10927" transform="translate(19.8 57.991)">
                <path id="Path_21820" data-name="Path 21820" d="M234.344,68.5s1.237-.271,1.506-.35.243-.275.243-.5.058-.444-.243-.444h-1.506l-.424.332Z" transform="translate(-233.92 -67.213)" fill="url(#linear-gradient-33)"/>
                <path id="Path_21821" data-name="Path 21821" d="M233.92,67.542l1.623-.148-1.5.417Z" transform="translate(-233.92 -67.21)" fill="#ededed"/>
              </g>
              <rect id="Rectangle_3976" data-name="Rectangle 3976" width="0.335" height="50.873" transform="translate(4.444 3.956)" fill="#fff"/>
              <rect id="Rectangle_3977" data-name="Rectangle 3977" width="0.335" height="50.873" transform="translate(17.253 3.956)" fill="#fff"/>
              <rect id="Rectangle_3978" data-name="Rectangle 3978" width="0.335" height="8.061" transform="translate(10.994 46.768)" fill="#fff"/>
              <rect id="Rectangle_3979" data-name="Rectangle 3979" width="0.335" height="18.082" transform="translate(10.994 22.309)" fill="#fff"/>
              <rect id="Rectangle_3980" data-name="Rectangle 3980" width="0.335" height="12.735" transform="translate(10.994 3.956)" fill="#fff"/>
              <path id="Path_21822" data-name="Path 21822" d="M219.67,11.309c0,.377-.822.683-1.836.683S216,11.685,216,11.309s.823-.683,1.836-.683S219.67,10.932,219.67,11.309Z" transform="translate(-214.438 -10.227)" fill="url(#radial-gradient)" style="mix-blend-mode: screen;isolation: isolate"/>
              <path id="Path_21823" data-name="Path 21823" d="M234.469,11.309c0,.377-.822.683-1.837.683s-1.835-.306-1.835-.683.822-.683,1.835-.683S234.469,10.932,234.469,11.309Z" transform="translate(-214.175 -10.227)" fill="url(#radial-gradient-2)" style="mix-blend-mode: screen;isolation: isolate"/>
            </g>
          </g>
        </g>
        <path id="Polygon_20" data-name="Polygon 20" d="M10.176,1.2a1,1,0,0,1,1.648,0l9.1,13.235A1,1,0,0,1,20.1,16H1.9a1,1,0,0,1-.824-1.567Z" transform="translate(-471 -3847) rotate(-180)" fill="#ff3b30"/>
      </g>
    </g>
  </g>
</svg>
