<svg xmlns="http://www.w3.org/2000/svg" width="16" height="16.058" viewBox="0 0 16 16.058">
  <g id="Group_10636" data-name="Group 10636" transform="translate(-186.446 -315.432)">
    <path id="Path_17922" data-name="Path 17922" d="M193.607,328.036v.229q0,3.745,0,7.49c0,.237,0,.238.247.238l7.455,0h.229a7.544,7.544,0,1,1-7.932-7.959Z" transform="translate(0 -11.7)" fill="#fff"/>
    <path id="Path_17923" data-name="Path 17923" d="M320.462,322.338h-1q-2.848,0-5.7,0c-.128,0-.191-.018-.191-.173q.008-3.287.005-6.574c0-.047.005-.094.009-.161a7.741,7.741,0,0,1,6.872,6.906Z" transform="translate(-118.016)" fill="#fff"/>
  </g>
</svg>
