<?xml version="1.0" encoding="utf-8"?>
<!-- Generator: Adobe Illustrator 23.0.6, SVG Export Plug-In . SVG Version: 6.00 Build 0)  -->
<svg version="1.1" id="Layer_1" xmlns="http://www.w3.org/2000/svg" xmlns:xlink="http://www.w3.org/1999/xlink" x="0px" y="0px"
	 viewBox="0 0 19.3 9" style="enable-background:new 0 0 19.3 9;" xml:space="preserve">
<style type="text/css">
	.st0{fill:#FFFFFF;}
</style>
<g>
	<path class="st0" d="M7,6.4L7,6.4c0-0.1-0.1-0.2-0.2-0.2H0.2C0.1,6.2,0,6.2,0,6.3v0c0,0.1,0.1,0.2,0.2,0.2h6.6C6.9,6.5,7,6.5,7,6.4
		z"/>
	<path class="st0" d="M3.2,7.2L3.2,7.2C3.2,7,3.1,7,3,7H1.4C1.3,7,1.2,7,1.2,7.1v0c0,0.1,0.1,0.2,0.2,0.2H3C3.1,7.4,3.2,7.3,3.2,7.2
		z"/>
	<path class="st0" d="M3.6,7C3.5,7,3.4,7,3.4,7.1v0c0,0.1,0.1,0.2,0.2,0.2h1.2C4.9,7.4,5,7.3,5,7.2v0C5,7,4.9,7,4.8,7H3.6z"/>
	<path class="st0" d="M2.5,5.8h2.4C5,5.8,5,5.7,5,5.6v0C5,5.5,5,5.4,4.9,5.4H2.5c-0.1,0-0.2,0.1-0.2,0.2v0C2.3,5.7,2.4,5.8,2.5,5.8z
		"/>
	<path class="st0" d="M5.5,5.8h1c0.1,0,0.2-0.1,0.2-0.2v0c0-0.1-0.1-0.2-0.2-0.2h-1c-0.1,0-0.2,0.1-0.2,0.2v0
		C5.3,5.7,5.4,5.8,5.5,5.8z"/>
	<path class="st0" d="M3.1,4.8L3.1,4.8c0-0.1-0.1-0.2-0.2-0.2H1.7c-0.1,0-0.2,0.1-0.2,0.2v0C1.5,4.9,1.6,5,1.7,5h1.2
		C3,5,3.1,4.9,3.1,4.8z"/>
	<path class="st0" d="M2.6,3.5h1.5c0.1,0,0.2-0.1,0.2-0.2v0c0-0.1-0.1-0.2-0.2-0.2H2.6c-0.1,0-0.2,0.1-0.2,0.2v0
		C2.4,3.4,2.5,3.5,2.6,3.5z"/>
	<path class="st0" d="M6.3,3.5c0.1,0,0.2-0.1,0.2-0.2v0c0-0.1-0.1-0.2-0.2-0.2H4.8c-0.1,0-0.2,0.1-0.2,0.2v0c0,0.1,0.1,0.2,0.2,0.2
		H6.3z"/>
	<path class="st0" d="M1,4.2h6.1c0.1,0,0.2-0.1,0.2-0.2v0c0-0.1-0.1-0.2-0.2-0.2H1C0.9,3.8,0.9,3.9,0.9,4v0C0.9,4.1,0.9,4.2,1,4.2z"
		/>
	<path class="st0" d="M6.2,4.8L6.2,4.8c0-0.1-0.1-0.2-0.2-0.2H3.5c-0.1,0-0.2,0.1-0.2,0.2v0C3.3,4.9,3.4,5,3.5,5H6
		C6.1,5,6.2,4.9,6.2,4.8z"/>
	<path class="st0" d="M4.9,7.9L4.9,7.9c0-0.1-0.1-0.2-0.2-0.2h-2c-0.1,0-0.2,0.1-0.2,0.2v0c0,0.1,0.1,0.2,0.2,0.2h2
		C4.8,8.1,4.9,8,4.9,7.9z"/>
	<circle class="st0" cx="11.7" cy="7.8" r="0.2"/>
	<circle class="st0" cx="6" cy="7.8" r="0.2"/>
	<path class="st0" d="M16.1,2.2L16.1,2.2c-0.1,0-0.3,0-0.4,0c-1.2-2.1-3.8-2.8-5.9-1.7c-0.4,0.2-0.7,0.5-1,0.8C8,1,7,1.4,6.7,2.1
		c0,0,0,0.1,0,0.1H3.9c-0.1,0-0.2,0.1-0.2,0.2v0c0,0.1,0.1,0.2,0.2,0.2h2.6c0,0,0,0,0,0h3c0.1,0,0.2,0.1,0.2,0.2v3.8
		c0,0,0,0.1,0.1,0.1h0.1c0,0,0.1,0,0.1-0.1c0,0,0,0,0,0V3.9c0-0.1,0-0.1,0.1-0.1h0.1c0.1,0,0.1,0,0.1,0.1h1.4c0.1,0,0.2,0.1,0.3,0.2
		l1,1.2c0.2,0.2,0.3,0.5,0.3,0.8v0.7c0.1,0,0.1,0.1,0.1,0.2v0.4c0,0.1,0,0.1,0,0.2c0,0.1-0.1,0.1-0.1,0.2v0.2c0,0.1-0.1,0.1-0.2,0.1
		h-0.6c0-0.5-0.4-0.9-0.9-0.9c-0.5,0-0.9,0.4-0.9,0.9H6.9c0-0.5-0.4-0.9-0.9-0.9c-0.4,0-0.8,0.3-0.9,0.7c0,0,0,0,0,0.1l0.1,0.2
		c0,0,0,0,0,0c0-0.4,0.3-0.7,0.7-0.7c0.4,0,0.7,0.3,0.7,0.7c0,0.2-0.1,0.4-0.3,0.6c-0.1,0-0.1,0.1-0.2,0.1H4c-0.1,0-0.3,0.1-0.3,0.2
		C3.7,8.9,3.8,9,4,9c0,0,0,0,0,0h11.9c1.9,0,3.4-1.5,3.4-3.4C19.4,3.8,17.9,2.3,16.1,2.2z M12.4,7.9c0,0.4-0.3,0.7-0.7,0.7
		c-0.4,0-0.8-0.3-0.8-0.7c0-0.4,0.3-0.8,0.7-0.8C12,7.1,12.4,7.4,12.4,7.9C12.4,7.8,12.4,7.8,12.4,7.9z"/>
	<path class="st0" d="M10.4,5.7c-0.1,0-0.1,0-0.1,0.1c0,0.1,0,0.1,0.1,0.1h0.4c0.1,0,0.1,0,0.1-0.1c0-0.1,0-0.1-0.1-0.1H10.4z"/>
	<path class="st0" d="M12.1,5.3c0-0.1,0.1-0.1,0.1-0.1h0.1c0,0,0,0,0,0c0,0,0,0,0,0l-0.7-0.9c0-0.1-0.1-0.1-0.2-0.1h-1.2
		c0,0-0.1,0-0.1,0.1v1.2c0,0.1,0,0.1,0.1,0.1h1.9V5.3z"/>
	<path class="st0" d="M13.1,7.3C13.1,7.3,13.2,7.3,13.1,7.3l0-0.3c0,0,0,0,0,0c0,0,0-0.1-0.1-0.1h-0.3c0,0,0,0,0,0c0,0,0,0,0,0.1
		C12.8,7.1,12.9,7.3,13.1,7.3C13.1,7.3,13.1,7.3,13.1,7.3z"/>
</g>
</svg>
