<?xml version="1.0" encoding="utf-8"?>
<!-- Generator: Adobe Illustrator 23.0.6, SVG Export Plug-In . SVG Version: 6.00 Build 0)  -->
<svg version="1.1" id="Layer_1" xmlns="http://www.w3.org/2000/svg" xmlns:xlink="http://www.w3.org/1999/xlink" x="0px" y="0px"
	 viewBox="0 0 12.1 12.6" style="enable-background:new 0 0 12.1 12.6;" xml:space="preserve">
<style type="text/css">
	.st0{fill:#FFFFFF;}
</style>
<path id="Path_21235_1_" class="st0" d="M11.8,4.1c-0.2-0.3-0.5-0.4-0.8-0.3c-0.3,0.1-0.3,0.4-0.3,0.6c0,0.2,0,0.4,0,0.7h-0.1
	c0-0.1,0-0.2,0-0.4c-0.1-1-0.1-2-0.2-3c0-0.4-0.2-0.8-0.5-0.9C9.3,0.5,8.7,0.3,8.1,0.3C7.4,0.2,6.7,0.2,6,0.2s-1.4,0-2,0.1
	C3.4,0.3,2.8,0.5,2.3,0.8C1.9,1,1.7,1.4,1.7,1.7c-0.1,1-0.1,2-0.2,3c0,0.1,0,0.2,0,0.4H1.4c0-0.2,0-0.4,0-0.7c0-0.3,0-0.6-0.3-0.6
	c-0.3-0.1-0.7,0-0.8,0.3C0,4.6-0.1,5.2,0.1,5.7c0,0.1,0.3,0.2,0.5,0.3C0.8,6,1,6,1.3,6C1.2,6.4,1.4,6.8,1,7.2
	C0.8,7.4,0.9,8.6,1.2,8.9C1.2,9,1.3,9.1,1.3,9.2c0,0.4,0,0.8,0,1.2c0.1,0.3,0.1,0.6,0.2,1c0,0.1,0,0.3,0.1,0.4
	c0,0.4,0.3,0.6,0.6,0.6c0,0,0,0,0,0c0.1,0,0.2,0,0.2,0c0.8,0,0.9-0.1,1-0.8h5c0.2,0.7,0.3,0.8,1,0.8c0.1,0,0.2,0,0.2,0
	c0.4,0,0.7-0.2,0.7-0.6c0,0,0,0,0,0c0-0.1,0-0.3,0.1-0.4c0.1-0.3,0.2-0.6,0.2-1c0-0.4,0-0.8,0-1.2c0-0.1,0-0.2,0.1-0.3
	c0.2-0.3,0.4-1.5,0.1-1.7c-0.4-0.4-0.2-0.8-0.2-1.2c0.2,0,0.4,0,0.7,0c0.2,0,0.4-0.1,0.5-0.3C12.1,5.2,12.1,4.6,11.8,4.1z M2.4,3.2
	h7.3v2.3C8.5,5.6,7.3,5.6,6,5.6c-1.2,0-2.4,0-3.7-0.1V3.2z M8.2,7.2c-0.7,0-1.4,0-2.1,0c-0.7,0-1.4,0-2.1,0C3.7,7.2,3.5,7.1,3.4,7
	l0-0.1h5.2l0,0.1C8.5,7.1,8.4,7.2,8.2,7.2L8.2,7.2z M8.7,7.9C8.5,8,8.4,8.2,8.2,8.2c-0.7,0-1.5,0-2.2,0c-0.7,0-1.5,0-2.2,0
	C3.7,8.2,3.5,8,3.4,7.9l0.1-0.1h5.2L8.7,7.9z M1.5,8.2c0-0.7,0-0.7,0.4-0.8v1.2C1.5,8.6,1.5,8.4,1.5,8.2L1.5,8.2z M2.2,10.2
	c-0.2,0-0.4-0.2-0.3-0.4c0-0.2,0.2-0.4,0.4-0.3c0.2,0,0.3,0.2,0.3,0.4C2.5,10.1,2.4,10.2,2.2,10.2L2.2,10.2z M3.2,10.2
	c-0.2,0-0.4-0.2-0.3-0.4c0-0.2,0.2-0.4,0.4-0.3c0.2,0,0.3,0.2,0.3,0.4C3.5,10.1,3.4,10.2,3.2,10.2L3.2,10.2z M6,9.1
	c-0.7,0-1.5,0-2.2,0C3.7,9.1,3.5,9,3.4,8.9c0,0,0-0.1,0.1-0.1h5.2c0,0,0,0.1,0.1,0.1C8.5,9,8.4,9.1,8.2,9.1C7.5,9.1,6.8,9.1,6,9.1
	L6,9.1z M8.9,10.2c-0.2,0-0.4-0.2-0.3-0.4s0.2-0.4,0.4-0.3c0.2,0,0.3,0.2,0.3,0.4C9.3,10.1,9.1,10.2,8.9,10.2
	C8.9,10.2,8.9,10.2,8.9,10.2L8.9,10.2z M9.9,10.2c-0.2,0-0.4-0.2-0.3-0.4c0-0.2,0.2-0.4,0.4-0.3c0.2,0,0.3,0.2,0.3,0.4
	C10.3,10.1,10.1,10.2,9.9,10.2L9.9,10.2z M10.6,8.2c0,0.2,0,0.4-0.4,0.4V7.4C10.6,7.5,10.6,7.5,10.6,8.2L10.6,8.2z"/>
</svg>
