<?xml version="1.0" encoding="utf-8"?>
<!-- Generator: Adobe Illustrator 23.0.6, SVG Export Plug-In . SVG Version: 6.00 Build 0)  -->
<svg version="1.1" id="Layer_1" xmlns="http://www.w3.org/2000/svg" xmlns:xlink="http://www.w3.org/1999/xlink" x="0px" y="0px"
	 viewBox="0 0 12.1 12.6" style="enable-background:new 0 0 12.1 12.6;" xml:space="preserve">
<style type="text/css">
	.st0{fill:#FFFFFF;}
</style>
<path id="Path_21980_1_" class="st0" d="M11.9,7.8l-1.1-0.6c0.1-0.6,0.1-1.2,0-1.8l1.1-0.6C12,4.7,12.1,4.6,12,4.4
	c-0.3-0.9-0.8-1.7-1.4-2.4c-0.1-0.1-0.3-0.1-0.4-0.1L9.2,2.6c-0.5-0.4-1-0.7-1.5-0.9V0.4c0-0.1-0.1-0.3-0.2-0.3
	c-0.9-0.2-1.9-0.2-2.8,0c-0.1,0-0.2,0.2-0.2,0.3v1.2C3.8,1.9,3.3,2.2,2.9,2.6L1.8,2C1.7,1.9,1.5,1.9,1.4,2C0.8,2.7,0.3,3.5,0,4.4
	c0,0.1,0,0.3,0.1,0.4l1.1,0.6C1.1,6,1.1,6.6,1.2,7.2L0.2,7.8C0,7.9,0,8,0,8.2c0.3,0.9,0.8,1.7,1.4,2.4c0.1,0.1,0.3,0.1,0.4,0.1
	L2.9,10c0.5,0.4,1,0.7,1.5,0.9v1.3c0,0.1,0.1,0.3,0.2,0.3c0.9,0.2,1.9,0.2,2.8,0c0.1,0,0.2-0.2,0.2-0.3v-1.2
	c0.6-0.2,1.1-0.5,1.5-0.9l1.1,0.6c0.1,0.1,0.3,0,0.4-0.1c0.6-0.7,1.1-1.5,1.4-2.4C12.1,8,12,7.9,11.9,7.8z M6,8.3c-1.1,0-2-0.9-2-2
	c0-1.1,0.9-2,2-2c1.1,0,2,0.9,2,2C8.1,7.4,7.1,8.3,6,8.3z"/>
</svg>
