<?xml version="1.0" encoding="utf-8"?>
<!-- Generator: Adobe Illustrator 23.0.6, SVG Export Plug-In . SVG Version: 6.00 Build 0)  -->
<svg version="1.1" id="Layer_1" xmlns="http://www.w3.org/2000/svg" xmlns:xlink="http://www.w3.org/1999/xlink" x="0px" y="0px"
	 viewBox="0 0 12.1 12.6" style="enable-background:new 0 0 12.1 12.6;" xml:space="preserve">
<style type="text/css">
	.st0{fill:#FFFFFF;}
</style>
<g>
	<path class="st0" d="M4.3,7.4L4.3,7.4c0-0.1-0.1-0.1-0.1-0.1H0.1C0.1,7.3,0,7.4,0,7.4v0c0,0.1,0.1,0.1,0.1,0.1h4.1
		C4.3,7.6,4.3,7.5,4.3,7.4z"/>
	<path class="st0" d="M2,7.9L2,7.9c0-0.1-0.1-0.1-0.1-0.1h-1c-0.1,0-0.1,0.1-0.1,0.1v0c0,0.1,0.1,0.1,0.1,0.1h1C1.9,8.1,2,8,2,7.9z"
		/>
	<path class="st0" d="M2.2,7.8c-0.1,0-0.1,0.1-0.1,0.1v0c0,0.1,0.1,0.1,0.1,0.1H3c0.1,0,0.1-0.1,0.1-0.1v0c0-0.1-0.1-0.1-0.1-0.1
		H2.2z"/>
	<path class="st0" d="M1.5,7.1H3C3.1,7.1,3.1,7,3.1,7v0c0-0.1-0.1-0.1-0.1-0.1H1.5C1.5,6.9,1.4,6.9,1.4,7v0C1.4,7,1.5,7.1,1.5,7.1z"
		/>
	<path class="st0" d="M3.4,7.1H4C4.1,7.1,4.2,7,4.2,7v0c0-0.1-0.1-0.1-0.1-0.1H3.4C3.4,6.9,3.3,6.9,3.3,7v0C3.3,7,3.4,7.1,3.4,7.1z"
		/>
	<path class="st0" d="M1.9,6.5L1.9,6.5c0-0.1-0.1-0.1-0.1-0.1H1.1C1,6.4,0.9,6.4,0.9,6.5v0c0,0.1,0.1,0.1,0.1,0.1h0.7
		C1.8,6.6,1.9,6.5,1.9,6.5z"/>
	<path class="st0" d="M1.6,5.6h0.9c0.1,0,0.1-0.1,0.1-0.1v0c0-0.1-0.1-0.1-0.1-0.1H1.6c-0.1,0-0.1,0.1-0.1,0.1v0
		C1.5,5.6,1.6,5.6,1.6,5.6z"/>
	<path class="st0" d="M3.9,5.6C4,5.6,4,5.6,4,5.5v0C4,5.5,4,5.4,3.9,5.4H3c-0.1,0-0.1,0.1-0.1,0.1v0c0,0.1,0.1,0.1,0.1,0.1H3.9z"/>
	<path class="st0" d="M0.7,6.1h3.8c0.1,0,0.1-0.1,0.1-0.1v0c0-0.1-0.1-0.1-0.1-0.1H0.7C0.6,5.9,0.5,5.9,0.5,6v0
		C0.5,6.1,0.6,6.1,0.7,6.1z"/>
	<path class="st0" d="M3.8,6.5L3.8,6.5c0-0.1-0.1-0.1-0.1-0.1H2.2C2.1,6.4,2,6.4,2,6.5v0c0,0.1,0.1,0.1,0.1,0.1h1.5
		C3.8,6.6,3.8,6.5,3.8,6.5z"/>
	<path class="st0" d="M3.1,8.4L3.1,8.4c0-0.1-0.1-0.1-0.1-0.1H1.7c-0.1,0-0.1,0.1-0.1,0.1v0c0,0.1,0.1,0.1,0.1,0.1h1.2
		C3,8.5,3.1,8.5,3.1,8.4z"/>
	<circle class="st0" cx="7.2" cy="8.4" r="0.1"/>
	<circle class="st0" cx="3.7" cy="8.4" r="0.1"/>
	<path class="st0" d="M10,4.9L10,4.9c-0.1,0-0.2,0-0.3,0C9,3.6,7.4,3.1,6.1,3.8C5.9,4,5.6,4.1,5.4,4.4C5,4.1,4.4,4.3,4.1,4.8
		c0,0,0,0.1,0,0.1H2.4C2.4,4.9,2.3,5,2.3,5v0c0,0.1,0.1,0.1,0.1,0.1h1.6c0,0,0,0,0,0h1.9C6,5.2,6,5.2,6,5.3v2.4c0,0,0,0,0,0h0
		c0,0,0,0,0,0c0,0,0,0,0,0V5.9c0,0,0-0.1,0.1-0.1h0.1c0,0,0.1,0,0.1,0.1h0.9c0.1,0,0.2,0,0.2,0.1l0.6,0.8C8.2,6.9,8.3,7,8.3,7.2v0.4
		c0.1,0,0.1,0.1,0.1,0.1V8c0,0,0,0.1,0,0.1c0,0,0,0.1-0.1,0.1v0.1c0,0-0.1,0.1-0.1,0.1H7.8c0-0.3-0.2-0.5-0.5-0.5
		C7,7.8,6.7,8.1,6.7,8.4H4.3c0-0.3-0.2-0.6-0.6-0.6C3.5,7.8,3.3,8,3.2,8.2c0,0,0,0,0,0l0.1,0.1c0,0,0,0,0,0c0-0.2,0.2-0.4,0.4-0.4
		c0.2,0,0.4,0.2,0.4,0.4c0,0.1-0.1,0.3-0.2,0.4c0,0-0.1,0-0.1,0H2.5c-0.1,0-0.2,0.1-0.2,0.1c0,0.1,0.1,0.2,0.1,0.2c0,0,0,0,0,0h7.4
		C11.1,9.1,12,8.2,12,7C12,5.9,11.2,4.9,10,4.9z M7.7,8.4c0,0.2-0.2,0.4-0.4,0.4C7,8.8,6.8,8.6,6.8,8.4c0-0.3,0.2-0.5,0.4-0.5
		C7.5,7.9,7.7,8.1,7.7,8.4C7.7,8.4,7.7,8.4,7.7,8.4z"/>
	<path class="st0" d="M6.5,7C6.4,7,6.4,7.1,6.5,7c-0.1,0.1,0,0.1,0,0.1h0.2c0,0,0.1,0,0.1-0.1S6.7,7,6.7,7H6.5z"/>
	<path class="st0" d="M7.6,6.8C7.6,6.7,7.6,6.7,7.6,6.8l0.1-0.1c0,0,0,0,0,0c0,0,0,0,0,0L7.3,6.1c0,0-0.1-0.1-0.1-0.1H6.4
		c0,0,0,0,0,0v0.8c0,0,0,0.1,0.1,0.1h1.2V6.8z"/>
	<path class="st0" d="M8.2,8C8.2,8,8.2,8,8.2,8l0-0.2c0,0,0,0,0,0c0,0,0-0.1-0.1-0.1H8c0,0,0,0,0,0c0,0,0,0,0,0C8,7.9,8,8,8.2,8
		C8.2,8,8.2,8,8.2,8z"/>
</g>
</svg>
