<?xml version="1.0" encoding="utf-8"?>
<!-- Generator: Adobe Illustrator 23.0.6, SVG Export Plug-In . SVG Version: 6.00 Build 0)  -->
<svg version="1.1" id="Layer_1" xmlns="http://www.w3.org/2000/svg" xmlns:xlink="http://www.w3.org/1999/xlink" x="0px" y="0px"
	 viewBox="0 0 12.1 12.6" style="enable-background:new 0 0 12.1 12.6;" xml:space="preserve">
<style type="text/css">
	.st0{fill:#FFFFFF;}
</style>
<g>
	<path class="st0" d="M0,11.8c0-0.1,0-0.2,0-0.3c0-0.1,0.1-0.3,0.1-0.6s0.2-0.5,0.3-0.6s0.4-0.3,0.8-0.4s0.9-0.3,1.4-0.5
		C3.1,9.3,3.5,9.1,3.7,9C4,8.9,4.2,8.6,4.4,8.3c0.2-0.3,0.2-0.6,0.2-0.9c0-0.2-0.1-0.5-0.4-0.7C4,6.4,3.8,6,3.6,5.5
		C3.5,5,3.4,4.4,3.4,3.8c0-0.5,0.1-0.9,0.2-1.3C3.8,2,3.9,1.7,4.2,1.5C4.4,1.2,4.7,1.1,5,1c0.3-0.1,0.6-0.2,1-0.2
		c0.4,0,0.7,0.1,1,0.2c0.3,0.1,0.6,0.3,0.8,0.5C8.1,1.7,8.3,2,8.4,2.4c0.1,0.4,0.2,0.8,0.2,1.3c0,0.7-0.1,1.2-0.2,1.8
		C8.3,6,8,6.4,7.8,6.7C7.5,7,7.4,7.3,7.4,7.5c0,0.3,0.1,0.6,0.2,0.9C7.8,8.6,8.1,8.9,8.4,9c0.2,0.1,0.6,0.3,1.1,0.4
		c0.5,0.2,0.9,0.3,1.3,0.5c0.4,0.2,0.7,0.3,0.8,0.4c0.1,0.1,0.2,0.3,0.3,0.6c0.1,0.2,0.1,0.4,0.1,0.6l0,0.2H0z"/>
</g>
</svg>
