<?xml version="1.0" encoding="utf-8"?>
<!-- Generator: Adobe Illustrator 23.0.6, SVG Export Plug-In . SVG Version: 6.00 Build 0)  -->
<svg version="1.1" id="Layer_1" xmlns="http://www.w3.org/2000/svg" xmlns:xlink="http://www.w3.org/1999/xlink" x="0px" y="0px"
	 viewBox="0 0 141.7 141.7" style="enable-background:new 0 0 141.7 141.7;" xml:space="preserve">
<style type="text/css">
	.st0{fill:#333333;}
	.st1{fill:#FFFFFF;}
	.st2{fill:none;stroke:#FFFFFF;stroke-miterlimit:10;}
</style>
<rect class="st0" width="141.7" height="141.7"/>
<g>
	<path class="st1" d="M92.2,123c-22.7-15.4-17.5-57.2-17.5-57.2s-13.5,17.3-12.2,57.9c4.4,1.1,8.9,1.7,13.7,1.7
		C81.7,125.4,87.1,124.6,92.2,123z"/>
	<path class="st1" d="M74.7,65.8c-20.3,11-30.1,42.9-31.6,48.4c5.7,4.3,12.3,7.6,19.4,9.4C61.2,83.1,74.7,65.8,74.7,65.8z"/>
	<path class="st1" d="M80.3,58.4c0,0,16.1-11,44.9-5.4c0,0-0.3-7.7-7.9-10.4c0,0-2-1.7-12.8,0.4c0,0-21.3,0.8-26.4,1.3
		c-3.7-0.3-13-3.4-27.6-5c-7.7-0.9-13.8-0.9-18.2-0.7c-6.7,9.1-10.7,20.3-10.7,32.4c0,8.6,2,16.7,5.5,23.9
		c16.2-19.5,35-27.3,35-27.3C44.2,83.2,37,100.9,35,106.6c1.8,2.1,3.8,4.1,5.9,5.9C43,105.7,54.8,71.5,80.3,58.4z M54.1,58
		c0.8-1.9,4.6-7.9,4.6-7.9c4.8-1.8,11.3-0.9,13.2-0.3C65.2,50.9,54.1,58,54.1,58z"/>
	<path class="st1" d="M124.1,56.5c-17.8-5.8-37.3,3.4-37.3,3.4C101.7,55.5,124.1,56.5,124.1,56.5z"/>
	<path class="st1" d="M128.3,86.9c3.3-11.6,2.1-19.9,2.1-19.9c-0.5-5.2-4.6-5.7-4.6-5.7c-3.6,0.5-3.7,5.5-3.7,5.5
		c-0.3,33.7-15.2,49-15.2,49c0.1,0,0.2-0.1,0.3-0.1C117.1,108.9,124.7,98.8,128.3,86.9z"/>
	<path class="st1" d="M49.2,23.4c12.7-4,20.9-3.5,27.9-3c8,0.6,18.7,4.5,24.4,8.3c5.7,3.7,7.7,2.1,7.7,2.1c1.1-1.2,0.1-2.9-1-4.1
		c-9-6.5-20-10.4-32-10.4C66.3,16.3,57.2,18.9,49.2,23.4z"/>
	<path class="st2" d="M58.7,50.1c0,0-3.9,5.9-4.6,7.9c0,0,11.1-7,17.9-8.2C70,49.2,63.5,48.3,58.7,50.1z"/>
</g>
</svg>
