<svg xmlns="http://www.w3.org/2000/svg" width="16.248" height="12.956" viewBox="0 0 16.248 12.956">
  <path id="Path_21978" data-name="Path 21978" d="M13-6.525a2.256,2.256,0,0,0,.8,0l.208.363a.314.314,0,0,0,.383.137,2.839,2.839,0,0,0,.815-.472.312.312,0,0,0,.071-.4l-.208-.363a2.192,2.192,0,0,0,.4-.7H15.9a.316.316,0,0,0,.31-.264,2.861,2.861,0,0,0,0-.942.313.313,0,0,0-.31-.262h-.419a2.192,2.192,0,0,0-.4-.7l.208-.363a.315.315,0,0,0-.071-.4,2.8,2.8,0,0,0-.815-.472.314.314,0,0,0-.383.137l-.208.363a2.257,2.257,0,0,0-.8,0l-.208-.363a.314.314,0,0,0-.383-.137,2.839,2.839,0,0,0-.815.472.312.312,0,0,0-.071.4l.208.363a2.192,2.192,0,0,0-.4.7H10.91a.316.316,0,0,0-.31.264,2.861,2.861,0,0,0,0,.942.313.313,0,0,0,.31.262h.419a2.192,2.192,0,0,0,.4.7l-.208.363a.315.315,0,0,0,.071.4,2.806,2.806,0,0,0,.815.472.314.314,0,0,0,.383-.137Zm-.267-1.493a.948.948,0,0,1,1.341-1.341A.948.948,0,0,1,12.736-8.018ZM9.808-4.111a4.412,4.412,0,0,0,0-1.612l.856-.427a.607.607,0,0,0,.254-.739A5.954,5.954,0,0,0,9.849-8.559a.608.608,0,0,0-.769-.135l-.739.427a4.409,4.409,0,0,0-1.394-.8v-.853a.61.61,0,0,0-.508-.6,5.791,5.791,0,0,0-1.93,0,.6.6,0,0,0-.5.6v.856a4.362,4.362,0,0,0-1.394.8l-.739-.427a.607.607,0,0,0-.769.135A5.962,5.962,0,0,0,.038-6.886.605.605,0,0,0,.3-6.15l.846.429a4.4,4.4,0,0,0,0,1.61L.3-3.684a.613.613,0,0,0-.267.739A5.986,5.986,0,0,0,1.11-1.277a.608.608,0,0,0,.769.135l.739-.424a4.409,4.409,0,0,0,1.394.8V.091a.61.61,0,0,0,.508.6,5.71,5.71,0,0,0,1.927,0,.608.608,0,0,0,.5-.6V-.762a4.361,4.361,0,0,0,1.394-.8l.739.427a.607.607,0,0,0,.769-.135,5.994,5.994,0,0,0,1.082-1.671.611.611,0,0,0-.267-.739Zm-2.986.536A1.9,1.9,0,0,1,4.139-6.259,1.9,1.9,0,0,1,6.822-3.575ZM13,1.064a2.257,2.257,0,0,0,.8,0l.208.363a.314.314,0,0,0,.383.137,2.839,2.839,0,0,0,.815-.472.312.312,0,0,0,.071-.4L15.077.33a2.192,2.192,0,0,0,.4-.7H15.9a.316.316,0,0,0,.31-.264,2.861,2.861,0,0,0,0-.942.313.313,0,0,0-.31-.262h-.419a2.192,2.192,0,0,0-.4-.7l.208-.363a.315.315,0,0,0-.071-.4,2.806,2.806,0,0,0-.815-.472.314.314,0,0,0-.383.137l-.208.363a2.256,2.256,0,0,0-.8,0l-.208-.363a.314.314,0,0,0-.383-.137,2.839,2.839,0,0,0-.815.472.312.312,0,0,0-.071.4l.208.363a2.192,2.192,0,0,0-.4.7H10.91a.316.316,0,0,0-.31.264,2.861,2.861,0,0,0,0,.942.313.313,0,0,0,.31.262h.419a2.192,2.192,0,0,0,.4.7l-.208.363a.315.315,0,0,0,.071.4,2.805,2.805,0,0,0,.815.472.314.314,0,0,0,.383-.137Zm-.267-1.5a.948.948,0,0,1,1.341-1.341A.948.948,0,0,1,12.736-.432Z" transform="translate(0 11.372)" fill="#fff"/>
</svg>
