<svg xmlns="http://www.w3.org/2000/svg" width="26.954" height="17.362" viewBox="0 0 26.954 17.362">
  <path id="Path_21489" data-name="Path 21489" d="M187.119,178.095a12.8,12.8,0,0,0-9.093-4.972c-.647-.034-1.5-.2-1.907.375-.1.2.068.409.239.545a14.539,14.539,0,0,1,5.892,2.929c.613.749,1.328,1.533,1.022,2.52-.647.988-1.941.749-3.031.919l-6.13.17-5.994-.1a2.341,2.341,0,0,1-1.737-.749,1.776,1.776,0,0,1,.238-1.6c1.567-2.316,4.121-3.235,6.5-4.019.17-.1.34-.307.272-.511a.891.891,0,0,0-.92-.477,13.846,13.846,0,0,0-5.687,1.533c-2.86,1.5-5.755,4.359-5.381,7.867.715,4.359,5.313,7.016,9.229,7.731.885.068,1.941.409,2.759-.068a.426.426,0,0,0,.136-.443.749.749,0,0,0-.341-.307,14.259,14.259,0,0,1-5.687-2.861,2.99,2.99,0,0,1-1.124-2.452,1.339,1.339,0,0,1,.579-.647,15.369,15.369,0,0,1,3.984-.409l4.87-.136L180,183c1.158.17,2.622-.238,3.3.851a1.817,1.817,0,0,1-.307,1.6c-1.567,2.282-4.053,3.167-6.4,3.951a.489.489,0,0,0-.34.545c.443.715,1.5.341,2.214.307,3.848-.579,7.969-2.793,9.536-6.709a5.875,5.875,0,0,0-.886-5.449m-19.446,2.725,3.338.136,7.356-.068a22.3,22.3,0,0,0,5.245-.579c.17-.1.409-.306.613-.1a2.829,2.829,0,0,1,.409.272c-.1.2-.375.17-.579.238l-2.35.238-4.7.1-6.777.068a43.025,43.025,0,0,1-4.7-.2c-.17-.068-.409-.034-.477-.239a1.482,1.482,0,0,1,.647-.341,5.433,5.433,0,0,0,1.975.477m20.025,1.226v.034l-.1-.1a6.362,6.362,0,0,0-2.01-4.291c-.034,0-.136-.034-.136.068a7.042,7.042,0,0,1,1.4,4.291c-.2,3.712-4.087,6.369-7.288,7.322a10.887,10.887,0,0,1-2.145.443c.647-.238,1.294-.375,1.941-.647,2.657-.851,5.79-2.861,6.607-5.824a1.155,1.155,0,0,0-.136-1.056,2.441,2.441,0,0,0-1.907-.511H178.5l-6.436.1-5.245.034c-1.022.2-2.554-.272-3.1.885-.1,1.43.784,2.486,1.669,3.542a14.785,14.785,0,0,0,6.982,3.508l-.068.068c-3.882-.613-8.411-2.759-9.365-6.982a6.4,6.4,0,0,1,1.226-4.9c0-.034-.034-.068-.068-.1-.34.136-.545.511-.783.783a7.786,7.786,0,0,0-1.26,3.644h-.068c-.273-2.963,2.009-5.381,4.393-6.845a12.516,12.516,0,0,1,5.823-1.873.033.033,0,0,1,.034.034,17.643,17.643,0,0,0-4.836,1.975,7.771,7.771,0,0,0-3.746,4.7.829.829,0,0,0,.273.681,3.807,3.807,0,0,0,2.315.477l3.781.034,10.659-.1c1.43-.068,2.929-.068,4.325-.272a1.246,1.246,0,0,0,.954-.783,4.332,4.332,0,0,0-.954-2.384c-1.975-2.623-4.836-3.678-7.731-4.36-.034-.1.034-.034.068-.068a12.732,12.732,0,0,1,6.743,2.316c2.111,1.464,3.78,3.61,3.61,6.164" transform="translate(-161.374 -173.073)" fill="#fff" fill-rule="evenodd"/>
</svg>
