<svg id="Group_11935" data-name="Group 11935" xmlns="http://www.w3.org/2000/svg" width="58.155" height="54.71" viewBox="0 0 58.155 54.71">
  <g id="Group_11765" data-name="Group 11765" transform="translate(0 0)">
    <g id="Group_11762" data-name="Group 11762">
      <g id="Group_11761" data-name="Group 11761">
        <path id="Path_22446" data-name="Path 22446" d="M-2466.24,304.125q6.377,0,12.754,0a1.4,1.4,0,0,0,1.041-.369,13.385,13.385,0,0,1,1.118-.769c.408-.3.794-.641,1.188-.967.263-.219.54-.428.785-.668.663-.65,1.347-1.283,1.954-1.983a18.16,18.16,0,0,0,1.478-2.017,28.175,28.175,0,0,0,1.427-2.431,18.907,18.907,0,0,0,1.724-5.347,20.923,20.923,0,0,0,.174-4.666,15.548,15.548,0,0,0-.64-3.676c-.256-.868-.58-1.719-.919-2.559a16.648,16.648,0,0,0-.856-1.771,13.458,13.458,0,0,0-1.017-1.637c-.7-.932-1.423-1.85-2.185-2.73-.443-.511-.988-.931-1.477-1.4a15.758,15.758,0,0,1-2.365-2.581,8.79,8.79,0,0,1-1.391-4.652,12.983,12.983,0,0,1,.009-1.935,3.882,3.882,0,0,1,1.043-2.206,4.762,4.762,0,0,1,1.2-.876,3.841,3.841,0,0,1,2.647-.373,4.131,4.131,0,0,1,2.5,1.427A4.533,4.533,0,0,1-2445.01,263a8.687,8.687,0,0,0,.545,2.884,18.426,18.426,0,0,0,1.773,3.592c.658,1.074,1.259,2.183,1.879,3.281a31.062,31.062,0,0,1,1.809,4.054,26.144,26.144,0,0,1,1.459,5.254,26,26,0,0,1,.323,6.454c-.089,1.027-.116,2.062-.246,3.083a15.36,15.36,0,0,1-.482,2.136,19.072,19.072,0,0,1-1.687,3.951c-.627,1.151-1.341,2.256-2.021,3.377-.6.988-1.2,1.978-1.819,2.951a9.255,9.255,0,0,0-1.179,3.438c-.2,1.084-.352,2.176-.573,3.255a3.232,3.232,0,0,1-2.362,2.21,31.607,31.607,0,0,1-5.168.2c-.4.011-.541-.158-.543-.554-.006-.708,0-1.417,0-2.126,0-.446-.083-.535-.516-.544-.323-.007-.647,0-.972.005s-.47.157-.461.5c.017.708.009,1.417.006,2.126,0,.473-.129.6-.6.6q-2.576,0-5.153,0c-.5,0-.645-.142-.651-.644-.01-.7,0-1.393,0-2.09,0-.407-.086-.491-.482-.5-.336-.006-.672-.007-1.01,0-.3.009-.435.152-.42.484.031.719.03,1.441.019,2.161-.006.4-.21.582-.619.583q-2.054.006-4.108,0c-.413,0-.572-.143-.579-.564-.012-.72-.016-1.442.018-2.16.016-.312-.092-.477-.375-.49-.429-.02-.863,0-1.294.011-.283.01-.383.176-.378.456.012.732.008,1.465,0,2.2,0,.462-.092.551-.548.551q-2.595,0-5.19,0c-.487,0-.61-.129-.613-.627,0-.709-.007-1.417,0-2.126.006-.316-.125-.476-.441-.478-.359,0-.72,0-1.08,0a.372.372,0,0,0-.418.424c.016.72.021,1.44.043,2.159.014.374-.155.64-.521.632a22.935,22.935,0,0,1-5.415-.26,2.748,2.748,0,0,1-2.157-2.152c-.277-1.263-.414-2.557-.681-3.823a9.783,9.783,0,0,0-1.4-3.429c-.513-.774-.979-1.578-1.481-2.359-.491-.762-1.024-1.5-1.492-2.273a15.413,15.413,0,0,1-.907-1.788c-.469-1.072-.967-2.14-1.325-3.25a13.331,13.331,0,0,1-.569-2.812c-.142-1.515-.205-3.04-.227-4.562a19.341,19.341,0,0,1,.592-5.314c.332-1.236.686-2.467,1.072-3.686.263-.831.58-1.647.914-2.453.226-.55.519-1.074.786-1.608.3-.6.575-1.209.906-1.789.431-.756.941-1.468,1.355-2.233.55-1.016,1.07-2.05,1.55-3.1a11.857,11.857,0,0,0,.734-3.938,4.031,4.031,0,0,1,.958-2.325,4.522,4.522,0,0,1,1.445-1.09,4.226,4.226,0,0,1,2.7-.354,3.478,3.478,0,0,1,2.336,1.46,7.31,7.31,0,0,1,.788,1.389,2.893,2.893,0,0,1,.176,1.164,23.727,23.727,0,0,1-.211,3.081,7.278,7.278,0,0,1-1.489,3.344,11.905,11.905,0,0,1-1.692,1.784c-.517.436-.969.948-1.444,1.433s-.952.957-1.395,1.465a13.055,13.055,0,0,0-.952,1.26c-.479.71-.96,1.421-1.385,2.163a13.639,13.639,0,0,0-.833,1.781,22.415,22.415,0,0,0-.877,2.5,18.467,18.467,0,0,0-.411,8.269,19.653,19.653,0,0,0,1.074,3.832c.391.934.9,1.82,1.338,2.733a14.838,14.838,0,0,0,2.167,3.151,29.865,29.865,0,0,0,2.555,2.537,18.908,18.908,0,0,0,1.9,1.519,3.361,3.361,0,0,0,2.083.769c4.106-.059,8.214-.027,12.322-.027Z" transform="translate(2495.298 -258.432)" fill="#c7c7cc"/>
      </g>
    </g>
    <g id="Group_11764" data-name="Group 11764" transform="translate(16.257 4.568)">
      <g id="Group_11763" data-name="Group 11763">
        <path id="Path_22447" data-name="Path 22447" d="M-2415.61,288.486a.8.8,0,0,0-.7-.417h-8.815V274.448a.8.8,0,0,0-.576-.769.8.8,0,0,0-.9.336l-14.422,22.435a.8.8,0,0,0-.027.818.8.8,0,0,0,.7.416h8.815V311.3a.8.8,0,0,0,.575.769.8.8,0,0,0,.226.032.806.806,0,0,0,.675-.368l14.421-22.435A.8.8,0,0,0-2415.61,288.486Z" transform="translate(2441.153 -273.645)" fill="#c7c7cc"/>
      </g>
    </g>
  </g>
</svg>
