<svg xmlns="http://www.w3.org/2000/svg" width="198" height="117.932" viewBox="0 0 198 117.932">
  <g id="Group_11937" data-name="Group 11937" transform="translate(-4246 9346.5)">
    <g id="Rectangle_4766" data-name="Rectangle 4766" transform="translate(4285 -9346)" fill="#fff" stroke="#c7c7cc" stroke-width="1">
      <rect width="34" height="25" stroke="none"/>
      <rect x="0.5" y="0.5" width="33" height="24" fill="none"/>
    </g>
    <g id="Rectangle_4768" data-name="Rectangle 4768" transform="translate(4246 -9255)" fill="#fff" stroke="#c7c7cc" stroke-width="1">
      <rect width="34" height="26" stroke="none"/>
      <rect x="0.5" y="0.5" width="33" height="25" fill="none"/>
    </g>
    <g id="Rectangle_4795" data-name="Rectangle 4795" transform="translate(4285 -9255)" fill="#fff" stroke="#c7c7cc" stroke-width="1">
      <rect width="34" height="26" stroke="none"/>
      <rect x="0.5" y="0.5" width="33" height="25" fill="none"/>
    </g>
    <g id="Rectangle_4799" data-name="Rectangle 4799" transform="translate(4372 -9346)" fill="#fff" stroke="#c7c7cc" stroke-width="1">
      <rect width="33" height="25" stroke="none"/>
      <rect x="0.5" y="0.5" width="32" height="24" fill="none"/>
    </g>
    <g id="Rectangle_4797" data-name="Rectangle 4797" transform="translate(4410 -9255)" fill="#fff" stroke="#c7c7cc" stroke-width="1">
      <rect width="34" height="26" stroke="none"/>
      <rect x="0.5" y="0.5" width="33" height="25" fill="none"/>
    </g>
    <g id="Rectangle_4796" data-name="Rectangle 4796" transform="translate(4372 -9255)" fill="#fff" stroke="#c7c7cc" stroke-width="1">
      <rect width="33" height="26" stroke="none"/>
      <rect x="0.5" y="0.5" width="32" height="25" fill="none"/>
    </g>
    <path id="Path_22493" data-name="Path 22493" d="M1069.677,365.873h0a.658.658,0,0,1-.617-.65v-9.76a.657.657,0,0,1,.255-.517.107.107,0,0,1,.025-.02c.018-.014.036-.023.054-.034a.511.511,0,0,1,.061-.032.174.174,0,0,1,.036-.014.611.611,0,0,1,.09-.029l.018,0c.027,0,.054-.011.081-.014V302.4h.011v-2.1h7.722v-1.348h-4.969c-1.52,0-2.753-.359-2.753-1.879v-2.489a.1.1,0,0,0-.025,0,.659.659,0,0,1-.608-.651v-9.762a.656.656,0,0,1,.5-.635.032.032,0,0,1,.014,0,.426.426,0,0,1,.074-.011.346.346,0,0,1,.047-.007v-4.68h-1.466c-.416,0-.459-.23-.454-.517,0-.1.007-.2.007-.3V278a2.994,2.994,0,0,1,.011-.409.525.525,0,0,1,.388-.468c.016,0,.029-.014.047-.018.158-.047.5-.131.888-.221v-1.92a4.74,4.74,0,0,1,.215-1.418,4.913,4.913,0,0,1,.359-.854c.075-.136.154-.267.239-.393a4.764,4.764,0,0,1,2.991-2,4.664,4.664,0,0,1,.962-.1s5.175-.244,14.23-.244c1.981,0,3.795.011,5.421.029q.7.007,1.348.018.972.014,1.841.029c.384.007.752.014,1.1.023l1.461.034c.3.007.578.014.84.023l.377.009c1.459.043,2.245.079,2.245.079h0a4.767,4.767,0,0,1,4.766,4.766v1.954c.16.038.307.072.434.1a.169.169,0,0,0,.032.009l.027.007c.106.027.194.05.255.068,0,0,0,0,.009,0a1.051,1.051,0,0,1,.131.052l.041.023a.383.383,0,0,1,.077.054.49.49,0,0,1,.036.034.455.455,0,0,1,.052.063c.007.011.016.023.023.034a.6.6,0,0,1,.034.081.124.124,0,0,1,.009.027.524.524,0,0,1,.023.106.014.014,0,0,1,0,.009,1.838,1.838,0,0,1,.011.3v.129c0,.1.007.2.007.3,0,.287-.038.517-.454.517h-1.407v4.678h.158a.67.67,0,0,1,.472.194s0,0,0,.007a.7.7,0,0,1,.075.09.191.191,0,0,1,.016.029.585.585,0,0,1,.045.084.313.313,0,0,1,.016.05.384.384,0,0,1,.023.072.6.6,0,0,1,.007.066c0,.023.007.043.007.065v9.76a.657.657,0,0,1-.66.66h-.163v2.686c0,1.326-.944,1.62-2.2,1.671-.178.009-.366.011-.556.011h-5.15V300.3h7.734V354.8h.034a.652.652,0,0,1,.465.192.664.664,0,0,1,.194.465v9.76a.663.663,0,0,1-.662.66h-.032v21.007h-36.99l-.016-21.01" transform="translate(3259.093 -9615.95)" fill="none" stroke="gray" stroke-miterlimit="10" stroke-width="1"/>
    <rect id="Rectangle_4807" data-name="Rectangle 4807" width="29.861" height="0.818" transform="translate(4332.531 -9327.313)" fill="#ccc"/>
    <rect id="Rectangle_4808" data-name="Rectangle 4808" width="16.231" height="0.818" transform="translate(4339.081 -9256.022)" fill="#ccc"/>
    <rect id="Rectangle_4811" data-name="Rectangle 4811" width="2.227" height="0.818" transform="translate(4332.531 -9256.022)" fill="#ccc"/>
    <rect id="Rectangle_4812" data-name="Rectangle 4812" width="2.227" height="0.818" transform="translate(4359.861 -9256.022)" fill="#ccc"/>
    <rect id="Rectangle_4809" data-name="Rectangle 4809" width="72.108" height="0.818" transform="translate(4347.742 -9327.313) rotate(90)" fill="#ccc"/>
    <path id="Rectangle_3921" data-name="Rectangle 3921" d="M1228.792,341.064h-3.056a.659.659,0,0,1-.658-.658v-9.76a.657.657,0,0,1,.657-.657h3.057a.66.66,0,0,1,.66.66h0V340.4a.66.66,0,0,1-.66.66Z" transform="translate(3137.314 -9662.428)" fill="rgba(199,199,204,0.3)" stroke="#c7c7cc" stroke-miterlimit="10" stroke-width="1.5"/>
    <path id="Rectangle_3922" data-name="Rectangle 3922" d="M1077.2,341.064h-3.058a.66.66,0,0,1-.663-.656v-9.763a.657.657,0,0,1,.657-.657h3.063a.661.661,0,0,1,.661.66V340.4a.66.66,0,0,1-.66.66Z" transform="translate(3254.676 -9662.428)" fill="rgba(199,199,204,0.3)" stroke="#c7c7cc" stroke-miterlimit="10" stroke-width="1.5"/>
    <rect id="Rectangle_4810" data-name="Rectangle 4810" width="5.406" height="18.586" rx="2.703" transform="translate(4344.63 -9329.604)" fill="#ccc"/>
    <path id="Rectangle_3926" data-name="Rectangle 3926" d="M1106.632,656.681h-3.055a.66.66,0,0,1-.66-.66h0v-9.757a.659.659,0,0,1,.66-.66h3.057a.659.659,0,0,1,.658.657v9.758a.661.661,0,0,1-.661.661Z" transform="translate(3231.882 -9906.757)" fill="rgba(199,199,204,0.3)" stroke="#c7c7cc" stroke-miterlimit="10" stroke-width="1.5"/>
    <path id="Rectangle_3926-2" data-name="Rectangle 3926" d="M1077.262,656.681h-3.055a.66.66,0,0,1-.66-.66h0v-9.757a.659.659,0,0,1,.66-.66h3.057a.659.659,0,0,1,.658.657v9.758a.661.661,0,0,1-.661.661Z" transform="translate(3254.619 -9906.757)" fill="rgba(199,199,204,0.3)" stroke="#c7c7cc" stroke-miterlimit="10" stroke-width="1.5"/>
    <path id="Rectangle_3926-3" data-name="Rectangle 3926" d="M1227.19,656.681h-3.055a.66.66,0,0,1-.66-.66h0v-9.757a.659.659,0,0,1,.66-.66h3.057a.659.659,0,0,1,.658.657v9.758a.661.661,0,0,1-.661.661Z" transform="translate(3138.555 -9906.757)" fill="rgba(199,199,204,0.3)" stroke="#c7c7cc" stroke-miterlimit="10" stroke-width="1.5"/>
    <path id="Rectangle_3926-4" data-name="Rectangle 3926" d="M1197.82,656.681h-3.055a.66.66,0,0,1-.66-.66h0v-9.757a.659.659,0,0,1,.66-.66h3.057a.658.658,0,0,1,.658.657v9.758a.661.661,0,0,1-.661.661Z" transform="translate(3161.291 -9906.757)" fill="rgba(199,199,204,0.3)" stroke="#c7c7cc" stroke-miterlimit="10" stroke-width="1.5"/>
    <text id="N_A" data-name="N/A" transform="translate(4295 -9330)" fill="#2f353a" font-size="8" font-family="Prompt-Regular, Prompt"><tspan x="0" y="0">N/A</tspan></text>
    <text id="N_A-2" data-name="N/A" transform="translate(4381 -9330)" fill="#2f353a" font-size="8" font-family="Prompt-Regular, Prompt"><tspan x="0" y="0">N/A</tspan></text>
    <text id="N_A-3" data-name="N/A" transform="translate(4256 -9239)" fill="#2f353a" font-size="8" font-family="Prompt-Regular, Prompt"><tspan x="0" y="0">N/A</tspan></text>
    <text id="N_A-4" data-name="N/A" transform="translate(4420 -9239)" fill="#2f353a" font-size="8" font-family="Prompt-Regular, Prompt"><tspan x="0" y="0">N/A</tspan></text>
    <text id="N_A-5" data-name="N/A" transform="translate(4295 -9239)" fill="#2f353a" font-size="8" font-family="Prompt-Regular, Prompt"><tspan x="0" y="0">N/A</tspan></text>
    <text id="N_A-6" data-name="N/A" transform="translate(4381 -9239)" fill="#2f353a" font-size="8" font-family="Prompt-Regular, Prompt"><tspan x="0" y="0">N/A</tspan></text>
  </g>
</svg>
