<svg id="Group_11954" data-name="Group 11954" xmlns="http://www.w3.org/2000/svg" width="57.391" height="53.992" viewBox="0 0 57.391 53.992">
  <g id="Group_11748" data-name="Group 11748" transform="translate(0 0)">
    <path id="Path_22437" data-name="Path 22437" d="M-2031.274,303.525q6.294,0,12.588,0a1.376,1.376,0,0,0,1.026-.364c.327-.3.746-.492,1.1-.759.4-.3.784-.633,1.172-.954.261-.216.533-.422.774-.659.655-.642,1.33-1.266,1.93-1.957a18.142,18.142,0,0,0,1.458-1.99c.5-.777.983-1.576,1.407-2.4a18.629,18.629,0,0,0,1.7-5.277,20.538,20.538,0,0,0,.173-4.6,15.349,15.349,0,0,0-.632-3.628c-.252-.856-.573-1.7-.906-2.525a16.537,16.537,0,0,0-.846-1.748,13.5,13.5,0,0,0-1-1.616c-.691-.92-1.4-1.825-2.157-2.694-.437-.5-.976-.918-1.459-1.385a15.636,15.636,0,0,1-2.331-2.548,8.681,8.681,0,0,1-1.374-4.591,13.175,13.175,0,0,1,.008-1.909,3.834,3.834,0,0,1,1.032-2.177,4.71,4.71,0,0,1,1.183-.865,3.8,3.8,0,0,1,2.614-.368,4.082,4.082,0,0,1,2.466,1.408,4.46,4.46,0,0,1,1.021,3.019,8.6,8.6,0,0,0,.54,2.846,18.056,18.056,0,0,0,1.751,3.544c.65,1.06,1.242,2.155,1.853,3.238a30.629,30.629,0,0,1,1.786,4,25.866,25.866,0,0,1,1.439,5.185,25.606,25.606,0,0,1,.318,6.369c-.087,1.014-.113,2.035-.243,3.043a14.964,14.964,0,0,1-.475,2.108,18.857,18.857,0,0,1-1.666,3.9c-.618,1.136-1.322,2.226-1.994,3.332-.591.974-1.182,1.952-1.795,2.912a9.135,9.135,0,0,0-1.164,3.392c-.193,1.07-.347,2.147-.564,3.212a3.194,3.194,0,0,1-2.333,2.181,31.2,31.2,0,0,1-5.1.2c-.39.011-.531-.156-.533-.547-.005-.7,0-1.4,0-2.1,0-.44-.08-.528-.508-.537-.32-.007-.64,0-.959.005s-.465.155-.456.492c.017.7.008,1.4.006,2.1,0,.467-.128.592-.594.592q-2.543,0-5.085,0c-.491,0-.637-.141-.644-.635-.009-.687,0-1.375,0-2.062,0-.4-.085-.485-.475-.492-.333-.005-.664-.007-1,0-.3.009-.43.15-.414.478.031.71.029,1.422.018,2.132-.005.4-.207.574-.61.576q-2.028.006-4.054,0c-.408,0-.563-.141-.571-.557-.013-.711-.017-1.423.019-2.132.014-.308-.092-.471-.37-.483-.425-.02-.853,0-1.278.011-.279.01-.379.174-.374.449.013.723.01,1.446.005,2.169,0,.456-.09.543-.541.544q-2.559,0-5.12,0c-.482,0-.6-.127-.605-.619,0-.7-.009-1.4,0-2.1.005-.312-.123-.469-.435-.472-.355,0-.711,0-1.065,0a.367.367,0,0,0-.412.419c.016.71.019,1.421.043,2.131.011.369-.154.632-.515.624a22.646,22.646,0,0,1-5.345-.257,2.711,2.711,0,0,1-2.127-2.124c-.272-1.247-.409-2.523-.672-3.773a9.641,9.641,0,0,0-1.38-3.384c-.505-.764-.966-1.558-1.461-2.328-.483-.752-1.011-1.477-1.473-2.243a15.033,15.033,0,0,1-.893-1.764,34.464,34.464,0,0,1-1.308-3.208,13.205,13.205,0,0,1-.562-2.775c-.141-1.5-.2-3-.224-4.5a19.158,19.158,0,0,1,.585-5.244q.49-1.83,1.056-3.638c.26-.82.573-1.625.9-2.421.224-.543.512-1.06.776-1.587.293-.59.569-1.193.894-1.765.426-.746.927-1.449,1.337-2.2q.816-1.5,1.531-3.061a11.765,11.765,0,0,0,.724-3.887,3.983,3.983,0,0,1,.944-2.295,4.485,4.485,0,0,1,1.426-1.076,4.176,4.176,0,0,1,2.661-.349,3.432,3.432,0,0,1,2.306,1.441,7.169,7.169,0,0,1,.777,1.371,2.9,2.9,0,0,1,.174,1.148,23.8,23.8,0,0,1-.207,3.041,7.212,7.212,0,0,1-1.471,3.3,11.642,11.642,0,0,1-1.669,1.76c-.51.43-.956.936-1.425,1.414s-.94.944-1.376,1.445a12.2,12.2,0,0,0-.938,1.244c-.475.7-.949,1.4-1.369,2.135a13.1,13.1,0,0,0-.823,1.758,21.942,21.942,0,0,0-.865,2.471,18.206,18.206,0,0,0-.406,8.16,19.16,19.16,0,0,0,1.059,3.781c.386.922.886,1.8,1.32,2.7a14.63,14.63,0,0,0,2.139,3.11,29.653,29.653,0,0,0,2.522,2.5,18.584,18.584,0,0,0,1.874,1.5,3.318,3.318,0,0,0,2.055.758c4.053-.059,8.106-.026,12.16-.026Z" transform="translate(2059.95 -258.432)" fill="rgba(0, 0, 0, 0.65)"/>
    <path id="Path_22438" data-name="Path 22438" d="M-1968.333,285.393q0,5.137,0,10.275a4.766,4.766,0,0,1-.443,2.171,4.2,4.2,0,0,1-1.115,1.339,4.081,4.081,0,0,1-1.792.79,2.653,2.653,0,0,1-1.664-.187,4.445,4.445,0,0,1-1.263-.682,3.219,3.219,0,0,1-1.159-1.729,8.477,8.477,0,0,1-.225-1.821q-.023-10.453-.01-20.905a3.991,3.991,0,0,1,1.074-2.846,3.851,3.851,0,0,1,3.951-.926,5.908,5.908,0,0,1,1.363.78,3.464,3.464,0,0,1,.715.9,5.25,5.25,0,0,1,.572,2.815C-1968.339,278.709-1968.333,282.051-1968.333,285.393Z" transform="translate(2000.88 -267.026)" fill="rgba(0, 0, 0, 0.65)"/>
    <path id="Path_22439" data-name="Path 22439" d="M-1972.175,376.038a3.863,3.863,0,0,1,3.838,3.787,3.8,3.8,0,0,1-3.858,3.827,3.794,3.794,0,0,1-3.792-3.782A3.821,3.821,0,0,1-1972.175,376.038Z" transform="translate(2000.867 -341.188)" fill="rgba(0, 0, 0, 0.65)"/>
  </g>
</svg>
